%TF.GenerationSoftware,KiCad,Pcbnew,8.0.2*%
%TF.CreationDate,2024-05-06T20:09:05+02:00*%
%TF.ProjectId,sNs-Block,734e732d-426c-46f6-936b-2e6b69636164,rev?*%
%TF.SameCoordinates,Original*%
%TF.FileFunction,Copper,L1,Top*%
%TF.FilePolarity,Positive*%
%FSLAX46Y46*%
G04 Gerber Fmt 4.6, Leading zero omitted, Abs format (unit mm)*
G04 Created by KiCad (PCBNEW 8.0.2) date 2024-05-06 20:09:05*
%MOMM*%
%LPD*%
G01*
G04 APERTURE LIST*
G04 Aperture macros list*
%AMRoundRect*
0 Rectangle with rounded corners*
0 $1 Rounding radius*
0 $2 $3 $4 $5 $6 $7 $8 $9 X,Y pos of 4 corners*
0 Add a 4 corners polygon primitive as box body*
4,1,4,$2,$3,$4,$5,$6,$7,$8,$9,$2,$3,0*
0 Add four circle primitives for the rounded corners*
1,1,$1+$1,$2,$3*
1,1,$1+$1,$4,$5*
1,1,$1+$1,$6,$7*
1,1,$1+$1,$8,$9*
0 Add four rect primitives between the rounded corners*
20,1,$1+$1,$2,$3,$4,$5,0*
20,1,$1+$1,$4,$5,$6,$7,0*
20,1,$1+$1,$6,$7,$8,$9,0*
20,1,$1+$1,$8,$9,$2,$3,0*%
%AMFreePoly0*
4,1,6,1.000000,0.000000,0.500000,-0.750000,-0.500000,-0.750000,-0.500000,0.750000,0.500000,0.750000,1.000000,0.000000,1.000000,0.000000,$1*%
%AMFreePoly1*
4,1,6,0.500000,-0.750000,-0.650000,-0.750000,-0.150000,0.000000,-0.650000,0.750000,0.500000,0.750000,0.500000,-0.750000,0.500000,-0.750000,$1*%
G04 Aperture macros list end*
%TA.AperFunction,ComponentPad*%
%ADD10R,2.200000X2.200000*%
%TD*%
%TA.AperFunction,ComponentPad*%
%ADD11O,2.200000X2.200000*%
%TD*%
%TA.AperFunction,ComponentPad*%
%ADD12R,2.000000X2.000000*%
%TD*%
%TA.AperFunction,ComponentPad*%
%ADD13C,2.000000*%
%TD*%
%TA.AperFunction,SMDPad,CuDef*%
%ADD14RoundRect,0.250000X-0.475000X0.250000X-0.475000X-0.250000X0.475000X-0.250000X0.475000X0.250000X0*%
%TD*%
%TA.AperFunction,ComponentPad*%
%ADD15R,1.700000X1.700000*%
%TD*%
%TA.AperFunction,ComponentPad*%
%ADD16O,1.700000X1.700000*%
%TD*%
%TA.AperFunction,ComponentPad*%
%ADD17R,1.500000X1.050000*%
%TD*%
%TA.AperFunction,ComponentPad*%
%ADD18O,1.500000X1.050000*%
%TD*%
%TA.AperFunction,SMDPad,CuDef*%
%ADD19RoundRect,0.250000X0.350000X0.450000X-0.350000X0.450000X-0.350000X-0.450000X0.350000X-0.450000X0*%
%TD*%
%TA.AperFunction,SMDPad,CuDef*%
%ADD20RoundRect,0.250000X-0.400000X-0.625000X0.400000X-0.625000X0.400000X0.625000X-0.400000X0.625000X0*%
%TD*%
%TA.AperFunction,SMDPad,CuDef*%
%ADD21RoundRect,0.250000X0.450000X-0.350000X0.450000X0.350000X-0.450000X0.350000X-0.450000X-0.350000X0*%
%TD*%
%TA.AperFunction,SMDPad,CuDef*%
%ADD22FreePoly0,270.000000*%
%TD*%
%TA.AperFunction,SMDPad,CuDef*%
%ADD23FreePoly1,270.000000*%
%TD*%
%TA.AperFunction,SMDPad,CuDef*%
%ADD24RoundRect,0.250000X-0.350000X-0.450000X0.350000X-0.450000X0.350000X0.450000X-0.350000X0.450000X0*%
%TD*%
%TA.AperFunction,ComponentPad*%
%ADD25R,1.600000X1.600000*%
%TD*%
%TA.AperFunction,ComponentPad*%
%ADD26O,1.600000X1.600000*%
%TD*%
%TA.AperFunction,SMDPad,CuDef*%
%ADD27R,3.500000X1.700000*%
%TD*%
%TA.AperFunction,SMDPad,CuDef*%
%ADD28R,1.700000X3.500000*%
%TD*%
%TA.AperFunction,SMDPad,CuDef*%
%ADD29R,1.500000X0.900000*%
%TD*%
%TA.AperFunction,ComponentPad*%
%ADD30C,1.600000*%
%TD*%
%TA.AperFunction,ComponentPad*%
%ADD31R,1.800000X1.600000*%
%TD*%
%TA.AperFunction,ComponentPad*%
%ADD32C,4.000000*%
%TD*%
%TA.AperFunction,ComponentPad*%
%ADD33RoundRect,0.650000X-0.650000X-0.650000X0.650000X-0.650000X0.650000X0.650000X-0.650000X0.650000X0*%
%TD*%
%TA.AperFunction,ComponentPad*%
%ADD34C,2.600000*%
%TD*%
%TA.AperFunction,SMDPad,CuDef*%
%ADD35RoundRect,0.250000X-0.450000X0.350000X-0.450000X-0.350000X0.450000X-0.350000X0.450000X0.350000X0*%
%TD*%
%TA.AperFunction,SMDPad,CuDef*%
%ADD36RoundRect,0.250000X0.625000X-0.400000X0.625000X0.400000X-0.625000X0.400000X-0.625000X-0.400000X0*%
%TD*%
%TA.AperFunction,ComponentPad*%
%ADD37R,2.000000X1.905000*%
%TD*%
%TA.AperFunction,ComponentPad*%
%ADD38O,2.000000X1.905000*%
%TD*%
%TA.AperFunction,ViaPad*%
%ADD39C,0.600000*%
%TD*%
%TA.AperFunction,Conductor*%
%ADD40C,0.200000*%
%TD*%
G04 APERTURE END LIST*
D10*
%TO.P,D3,1,K*%
%TO.N,+12V*%
X191310000Y-32000000D03*
D11*
%TO.P,D3,2,A*%
%TO.N,+5V*%
X183690000Y-32000000D03*
%TD*%
D12*
%TO.P,C3,1*%
%TO.N,+5V*%
X171500000Y-31500000D03*
D13*
%TO.P,C3,2*%
%TO.N,GND*%
X171500000Y-36500000D03*
%TD*%
D14*
%TO.P,C2,1*%
%TO.N,+5V*%
X178500000Y-19600000D03*
%TO.P,C2,2*%
%TO.N,GND*%
X178500000Y-21500000D03*
%TD*%
%TO.P,C1,1*%
%TO.N,+12V*%
X178500000Y-25100000D03*
%TO.P,C1,2*%
%TO.N,GND*%
X178500000Y-27000000D03*
%TD*%
D15*
%TO.P,J17,1,Pin_1*%
%TO.N,Net-(J16-Pin_1)*%
X173540000Y-102500000D03*
D16*
%TO.P,J17,2,Pin_2*%
%TO.N,Net-(J17-Pin_2)*%
X171000000Y-102500000D03*
%TD*%
D17*
%TO.P,Q2,1,C*%
%TO.N,Net-(Q2-C)*%
X165500000Y-88770000D03*
D18*
%TO.P,Q2,2,B*%
%TO.N,Net-(Q2-B)*%
X165500000Y-87500000D03*
%TO.P,Q2,3,E*%
%TO.N,GND*%
X165500000Y-86230000D03*
%TD*%
D19*
%TO.P,R24,1*%
%TO.N,+12V*%
X167000000Y-52500000D03*
%TO.P,R24,2*%
%TO.N,FF Nord Tx*%
X165000000Y-52500000D03*
%TD*%
D20*
%TO.P,R26,1*%
%TO.N,+12V*%
X163400000Y-82500000D03*
%TO.P,R26,2*%
%TO.N,Net-(Q1-C)*%
X166500000Y-82500000D03*
%TD*%
D19*
%TO.P,R20,1*%
%TO.N,+12V*%
X167000000Y-57500000D03*
%TO.P,R20,2*%
%TO.N,FF S\u00FCd Tx*%
X165000000Y-57500000D03*
%TD*%
D15*
%TO.P,J9,1,Pin_1*%
%TO.N,+12V*%
X79420000Y-48500000D03*
D16*
%TO.P,J9,2,Pin_2*%
%TO.N,Net-(J9-Pin_2)*%
X81960000Y-48500000D03*
%TO.P,J9,3,Pin_3*%
%TO.N,GND*%
X84500000Y-48500000D03*
%TD*%
D21*
%TO.P,R10,1*%
%TO.N,Net-(J1-Pad8)*%
X128000000Y-92050000D03*
%TO.P,R10,2*%
%TO.N,Net-(R10-Pad2)*%
X128000000Y-90050000D03*
%TD*%
D22*
%TO.P,JP4,1,A*%
%TO.N,Net-(J6-Pin_7)*%
X181500000Y-75050000D03*
D23*
%TO.P,JP4,2,B*%
%TO.N,Net-(J16-Pin_2)*%
X181500000Y-76500000D03*
%TD*%
D15*
%TO.P,J8,1,Pin_1*%
%TO.N,GND*%
X93500000Y-48000000D03*
D16*
%TO.P,J8,2,Pin_2*%
%TO.N,Net-(J8-Pin_2)*%
X96040000Y-48000000D03*
%TD*%
D21*
%TO.P,R9,1*%
%TO.N,Net-(J1-Pad7)*%
X122500000Y-92050000D03*
%TO.P,R9,2*%
%TO.N,Net-(R9-Pad2)*%
X122500000Y-90050000D03*
%TD*%
%TO.P,R14,1*%
%TO.N,Net-(R14-Pad1)*%
X128000000Y-75500000D03*
%TO.P,R14,2*%
%TO.N,FM_S\u00FCd_Rx*%
X128000000Y-73500000D03*
%TD*%
D24*
%TO.P,R5,1*%
%TO.N,Net-(R5-Pad1)*%
X129000000Y-28500000D03*
%TO.P,R5,2*%
%TO.N,/Reed Nord*%
X131000000Y-28500000D03*
%TD*%
D19*
%TO.P,R29,1*%
%TO.N,/S Nord*%
X98000000Y-27500000D03*
%TO.P,R29,2*%
%TO.N,Net-(J3-Pin_3)*%
X96000000Y-27500000D03*
%TD*%
D24*
%TO.P,R8,1*%
%TO.N,Net-(R8-Pad1)*%
X128500000Y-42000000D03*
%TO.P,R8,2*%
%TO.N,/RLT S\u00FCd*%
X130500000Y-42000000D03*
%TD*%
D19*
%TO.P,R32,1*%
%TO.N,/T S\u00FCd*%
X93000000Y-35000000D03*
%TO.P,R32,2*%
%TO.N,Net-(J3-Pin_8)*%
X91000000Y-35000000D03*
%TD*%
D25*
%TO.P,U1,1*%
%TO.N,Net-(R1-Pad2)*%
X114700000Y-35625000D03*
D26*
%TO.P,U1,2*%
%TO.N,GND*%
X114700000Y-38165000D03*
%TO.P,U1,3*%
%TO.N,Net-(R2-Pad2)*%
X114700000Y-40705000D03*
%TO.P,U1,4*%
%TO.N,GND*%
X114700000Y-43245000D03*
%TO.P,U1,5*%
%TO.N,Net-(R3-Pad2)*%
X114700000Y-45785000D03*
%TO.P,U1,6*%
%TO.N,GND*%
X114700000Y-48325000D03*
%TO.P,U1,7*%
%TO.N,Net-(R4-Pad2)*%
X114700000Y-50865000D03*
%TO.P,U1,8*%
%TO.N,GND*%
X114700000Y-53405000D03*
%TO.P,U1,9*%
X122320000Y-53405000D03*
%TO.P,U1,10*%
%TO.N,Net-(R8-Pad1)*%
X122320000Y-50865000D03*
%TO.P,U1,11*%
%TO.N,GND*%
X122320000Y-48325000D03*
%TO.P,U1,12*%
%TO.N,Net-(R7-Pad1)*%
X122320000Y-45785000D03*
%TO.P,U1,13*%
%TO.N,GND*%
X122320000Y-43245000D03*
%TO.P,U1,14*%
%TO.N,Net-(R6-Pad1)*%
X122320000Y-40705000D03*
%TO.P,U1,15*%
%TO.N,GND*%
X122320000Y-38165000D03*
%TO.P,U1,16*%
%TO.N,Net-(R5-Pad1)*%
X122320000Y-35625000D03*
%TD*%
D17*
%TO.P,Q7,1,C*%
%TO.N,FM S\u00FCd Tx*%
X152360000Y-85770000D03*
D18*
%TO.P,Q7,2,B*%
%TO.N,Net-(Q7-B)*%
X152360000Y-84500000D03*
%TO.P,Q7,3,E*%
%TO.N,GND*%
X152360000Y-83230000D03*
%TD*%
D21*
%TO.P,R11,1*%
%TO.N,Net-(J2-Pad1)*%
X133000000Y-92050000D03*
%TO.P,R11,2*%
%TO.N,Net-(R11-Pad2)*%
X133000000Y-90050000D03*
%TD*%
D15*
%TO.P,J13,1,Pin_1*%
%TO.N,+12V*%
X80000000Y-80580000D03*
D16*
%TO.P,J13,2,Pin_2*%
%TO.N,Net-(J13-Pin_2)*%
X80000000Y-78040000D03*
%TO.P,J13,3,Pin_3*%
%TO.N,Net-(J13-Pin_3)*%
X80000000Y-75500000D03*
%TO.P,J13,4,Pin_4*%
%TO.N,Net-(J13-Pin_4)*%
X80000000Y-72960000D03*
%TD*%
D25*
%TO.P,U5,1,OUTR*%
%TO.N,Net-(U5-OUTR)*%
X103200000Y-79800000D03*
D26*
%TO.P,U5,2,OUTG*%
%TO.N,Net-(U5-OUTG)*%
X105740000Y-79800000D03*
%TO.P,U5,3,OUTB*%
%TO.N,Net-(U5-OUTB)*%
X108280000Y-79800000D03*
%TO.P,U5,4,GND*%
%TO.N,GND*%
X110820000Y-79800000D03*
%TO.P,U5,5,DO*%
%TO.N,Net-(D2-DIN)*%
X110820000Y-72180000D03*
%TO.P,U5,6,DIN*%
%TO.N,Net-(U4-DO)*%
X108280000Y-72180000D03*
%TO.P,U5,7,SET*%
%TO.N,unconnected-(U5-SET-Pad7)*%
X105740000Y-72180000D03*
%TO.P,U5,8,VDD*%
%TO.N,+5V*%
X103200000Y-72180000D03*
%TD*%
D17*
%TO.P,Q1,1,C*%
%TO.N,Net-(Q1-C)*%
X165500000Y-78770000D03*
D18*
%TO.P,Q1,2,B*%
%TO.N,Net-(Q1-B)*%
X165500000Y-77500000D03*
%TO.P,Q1,3,E*%
%TO.N,GND*%
X165500000Y-76230000D03*
%TD*%
D25*
%TO.P,U4,1,OUTR*%
%TO.N,Net-(U4-OUTR)*%
X103200000Y-92300000D03*
D26*
%TO.P,U4,2,OUTG*%
%TO.N,Net-(U4-OUTG)*%
X105740000Y-92300000D03*
%TO.P,U4,3,OUTB*%
%TO.N,Net-(U4-OUTB)*%
X108280000Y-92300000D03*
%TO.P,U4,4,GND*%
%TO.N,GND*%
X110820000Y-92300000D03*
%TO.P,U4,5,DO*%
%TO.N,Net-(U4-DO)*%
X110820000Y-84680000D03*
%TO.P,U4,6,DIN*%
%TO.N,/LED-Pin*%
X108280000Y-84680000D03*
%TO.P,U4,7,SET*%
%TO.N,unconnected-(U4-SET-Pad7)*%
X105740000Y-84680000D03*
%TO.P,U4,8,VDD*%
%TO.N,+5V*%
X103200000Y-84680000D03*
%TD*%
D22*
%TO.P,JP1,1,A*%
%TO.N,Net-(J6-Pin_1)*%
X191500000Y-75275000D03*
D23*
%TO.P,JP1,2,B*%
%TO.N,Net-(J15-Pin_2)*%
X191500000Y-76725000D03*
%TD*%
D24*
%TO.P,R4,1*%
%TO.N,Net-(J11-Pin_2)*%
X82500000Y-56000000D03*
%TO.P,R4,2*%
%TO.N,Net-(R4-Pad2)*%
X84500000Y-56000000D03*
%TD*%
D17*
%TO.P,Q5,1,C*%
%TO.N,/Block Kommunikation/FM Nord Tx*%
X118000000Y-87270000D03*
D18*
%TO.P,Q5,2,B*%
%TO.N,Net-(Q5-B)*%
X118000000Y-86000000D03*
%TO.P,Q5,3,E*%
%TO.N,GND*%
X118000000Y-84730000D03*
%TD*%
D15*
%TO.P,J14,1,Pin_1*%
%TO.N,Net-(J14-Pin_1)*%
X183960000Y-102500000D03*
D16*
%TO.P,J14,2,Pin_2*%
%TO.N,Net-(J14-Pin_2)*%
X181420000Y-102500000D03*
%TD*%
D24*
%TO.P,R7,1*%
%TO.N,Net-(R7-Pad1)*%
X129000000Y-37000000D03*
%TO.P,R7,2*%
%TO.N,/Reed S\u00FCd*%
X131000000Y-37000000D03*
%TD*%
D15*
%TO.P,J6,1,Pin_1*%
%TO.N,Net-(J6-Pin_1)*%
X198525000Y-46125000D03*
D16*
%TO.P,J6,2,Pin_2*%
%TO.N,Net-(J6-Pin_2)*%
X198525000Y-48665000D03*
%TO.P,J6,3,Pin_3*%
%TO.N,unconnected-(J6-Pin_3-Pad3)*%
X198525000Y-51205000D03*
%TO.P,J6,4,Pin_4*%
%TO.N,unconnected-(J6-Pin_4-Pad4)*%
X198525000Y-53745000D03*
%TO.P,J6,5,Pin_5*%
%TO.N,unconnected-(J6-Pin_5-Pad5)*%
X198525000Y-56285000D03*
%TO.P,J6,6,Pin_6*%
%TO.N,Net-(J6-Pin_6)*%
X198525000Y-58825000D03*
%TO.P,J6,7,Pin_7*%
%TO.N,Net-(J6-Pin_7)*%
X198525000Y-61365000D03*
%TO.P,J6,8,Pin_8*%
%TO.N,unconnected-(J6-Pin_8-Pad8)*%
X198525000Y-63905000D03*
%TD*%
D19*
%TO.P,R31,1*%
%TO.N,/S S\u00FCd*%
X98000000Y-32500000D03*
%TO.P,R31,2*%
%TO.N,Net-(J3-Pin_7)*%
X96000000Y-32500000D03*
%TD*%
D15*
%TO.P,J7,1,Pin_1*%
%TO.N,Net-(J15-Pin_2)*%
X198525000Y-73625000D03*
D16*
%TO.P,J7,2,Pin_2*%
%TO.N,Net-(J14-Pin_2)*%
X198525000Y-76165000D03*
%TO.P,J7,3,Pin_3*%
%TO.N,Net-(J14-Pin_1)*%
X198525000Y-78705000D03*
%TO.P,J7,4,Pin_4*%
%TO.N,unconnected-(J7-Pin_4-Pad4)*%
X198525000Y-81245000D03*
%TO.P,J7,5,Pin_5*%
%TO.N,unconnected-(J7-Pin_5-Pad5)*%
X198525000Y-83785000D03*
%TO.P,J7,6,Pin_6*%
%TO.N,Net-(J16-Pin_2)*%
X198525000Y-86325000D03*
%TO.P,J7,7,Pin_7*%
%TO.N,Net-(J17-Pin_2)*%
X198525000Y-88865000D03*
%TO.P,J7,8,Pin_8*%
%TO.N,Net-(J16-Pin_1)*%
X198525000Y-91405000D03*
%TD*%
%TO.P,U2,1,GPIO0*%
%TO.N,unconnected-(U2-GPIO0-Pad1)*%
X140110000Y-20870000D03*
D27*
X139210000Y-20870000D03*
D16*
%TO.P,U2,2,GPIO1*%
%TO.N,unconnected-(U2-GPIO1-Pad2)*%
X140110000Y-23410000D03*
D27*
X139210000Y-23410000D03*
D15*
%TO.P,U2,3,GND*%
%TO.N,GND*%
X140110000Y-25950000D03*
D27*
X139210000Y-25950000D03*
D16*
%TO.P,U2,4,GPIO2*%
%TO.N,/Reed Nord*%
X140110000Y-28490000D03*
D27*
X139210000Y-28490000D03*
D16*
%TO.P,U2,5,GPIO3*%
%TO.N,/RLT Nord*%
X140110000Y-31030000D03*
D27*
X139210000Y-31030000D03*
D16*
%TO.P,U2,6,GPIO4*%
%TO.N,/Reed S\u00FCd*%
X140110000Y-33570000D03*
D27*
X139210000Y-33570000D03*
D16*
%TO.P,U2,7,GPIO5*%
%TO.N,/RLT S\u00FCd*%
X140110000Y-36110000D03*
D27*
X139210000Y-36110000D03*
D15*
%TO.P,U2,8,GND*%
%TO.N,GND*%
X140110000Y-38650000D03*
D27*
X139210000Y-38650000D03*
D16*
%TO.P,U2,9,GPIO6*%
%TO.N,/T Nord*%
X140110000Y-41190000D03*
D27*
X139210000Y-41190000D03*
D16*
%TO.P,U2,10,GPIO7*%
%TO.N,/S Nord*%
X140110000Y-43730000D03*
D27*
X139210000Y-43730000D03*
D16*
%TO.P,U2,11,GPIO8*%
%TO.N,/T S\u00FCd*%
X140110000Y-46270000D03*
D27*
X139210000Y-46270000D03*
D16*
%TO.P,U2,12,GPIO9*%
%TO.N,/S S\u00FCd*%
X140110000Y-48810000D03*
D27*
X139210000Y-48810000D03*
D15*
%TO.P,U2,13,GND*%
%TO.N,GND*%
X140110000Y-51350000D03*
D27*
X139210000Y-51350000D03*
D16*
%TO.P,U2,14,GPIO10*%
%TO.N,FF Nord Rx*%
X140110000Y-53890000D03*
D27*
X139210000Y-53890000D03*
D16*
%TO.P,U2,15,GPIO11*%
%TO.N,FM_Nord_Rx*%
X140110000Y-56430000D03*
D27*
X139210000Y-56430000D03*
D16*
%TO.P,U2,16,GPIO12*%
%TO.N,FF_S\u00FCd_Rx*%
X140110000Y-58970000D03*
D27*
X139210000Y-58970000D03*
D16*
%TO.P,U2,17,GPIO13*%
%TO.N,FM_S\u00FCd_Rx*%
X140110000Y-61510000D03*
D27*
X139210000Y-61510000D03*
D15*
%TO.P,U2,18,GND*%
%TO.N,GND*%
X140110000Y-64050000D03*
D27*
X139210000Y-64050000D03*
D16*
%TO.P,U2,19,GPIO14*%
%TO.N,/LED-Pin*%
X140110000Y-66590000D03*
D27*
X139210000Y-66590000D03*
D16*
%TO.P,U2,20,GPIO15*%
%TO.N,unconnected-(U2-GPIO15-Pad20)*%
X140110000Y-69130000D03*
D27*
X139210000Y-69130000D03*
D16*
%TO.P,U2,21,GPIO16*%
%TO.N,Fahrstrom S\u00FCd*%
X157890000Y-69130000D03*
D27*
X158790000Y-69130000D03*
D16*
%TO.P,U2,22,GPIO17*%
%TO.N,Fahrstrom Nord*%
X157890000Y-66590000D03*
D27*
X158790000Y-66590000D03*
D15*
%TO.P,U2,23,GND*%
%TO.N,GND*%
X157890000Y-64050000D03*
D27*
X158790000Y-64050000D03*
D16*
%TO.P,U2,24,GPIO18*%
%TO.N,FM S\u00FCd Tx*%
X157890000Y-61510000D03*
D27*
X158790000Y-61510000D03*
D16*
%TO.P,U2,25,GPIO19*%
%TO.N,FF S\u00FCd Tx*%
X157890000Y-58970000D03*
D27*
X158790000Y-58970000D03*
D16*
%TO.P,U2,26,GPIO20*%
%TO.N,FM Nord TX*%
X157890000Y-56430000D03*
D27*
X158790000Y-56430000D03*
D16*
%TO.P,U2,27,GPIO21*%
%TO.N,FF Nord Tx*%
X157890000Y-53890000D03*
D27*
X158790000Y-53890000D03*
D15*
%TO.P,U2,28,GND*%
%TO.N,GND*%
X157890000Y-51350000D03*
D27*
X158790000Y-51350000D03*
D16*
%TO.P,U2,29,GPIO22*%
%TO.N,unconnected-(U2-GPIO22-Pad29)*%
X157890000Y-48810000D03*
D27*
X158790000Y-48810000D03*
D16*
%TO.P,U2,30,RUN*%
%TO.N,unconnected-(U2-RUN-Pad30)*%
X157890000Y-46270000D03*
D27*
X158790000Y-46270000D03*
D16*
%TO.P,U2,31,GPIO26_ADC0*%
%TO.N,unconnected-(U2-GPIO26_ADC0-Pad31)*%
X157890000Y-43730000D03*
D27*
X158790000Y-43730000D03*
D16*
%TO.P,U2,32,GPIO27_ADC1*%
%TO.N,unconnected-(U2-GPIO27_ADC1-Pad32)*%
X157890000Y-41190000D03*
D27*
X158790000Y-41190000D03*
D15*
%TO.P,U2,33,AGND*%
%TO.N,GND*%
X157890000Y-38650000D03*
D27*
X158790000Y-38650000D03*
D16*
%TO.P,U2,34,GPIO28_ADC2*%
%TO.N,unconnected-(U2-GPIO28_ADC2-Pad34)*%
X157890000Y-36110000D03*
D27*
X158790000Y-36110000D03*
D16*
%TO.P,U2,35,ADC_VREF*%
%TO.N,unconnected-(U2-ADC_VREF-Pad35)*%
X157890000Y-33570000D03*
D27*
X158790000Y-33570000D03*
D16*
%TO.P,U2,36,3V3*%
%TO.N,unconnected-(U2-3V3-Pad36)*%
X157890000Y-31030000D03*
D27*
X158790000Y-31030000D03*
D16*
%TO.P,U2,37,3V3_EN*%
%TO.N,unconnected-(U2-3V3_EN-Pad37)*%
X157890000Y-28490000D03*
D27*
X158790000Y-28490000D03*
D15*
%TO.P,U2,38,GND*%
%TO.N,GND*%
X157890000Y-25950000D03*
D27*
X158790000Y-25950000D03*
D16*
%TO.P,U2,39,VSYS*%
%TO.N,Net-(JP5-A)*%
X157890000Y-23410000D03*
D27*
X158790000Y-23410000D03*
D16*
%TO.P,U2,40,VBUS*%
%TO.N,unconnected-(U2-VBUS-Pad40)*%
X157890000Y-20870000D03*
D27*
X158790000Y-20870000D03*
D16*
%TO.P,U2,41,SWCLK*%
%TO.N,unconnected-(U2-SWCLK-Pad41)*%
X146460000Y-68900000D03*
D28*
X146460000Y-69800000D03*
D15*
%TO.P,U2,42,GND*%
%TO.N,unconnected-(U2-GND-Pad42)*%
X149000000Y-68900000D03*
D28*
X149000000Y-69800000D03*
D16*
%TO.P,U2,43,SWDIO*%
%TO.N,unconnected-(U2-SWDIO-Pad43)*%
X151540000Y-68900000D03*
D28*
X151540000Y-69800000D03*
%TD*%
D25*
%TO.P,U3,1*%
%TO.N,Net-(R9-Pad2)*%
X123125000Y-86500000D03*
D26*
%TO.P,U3,2*%
%TO.N,GND*%
X125665000Y-86500000D03*
%TO.P,U3,3*%
%TO.N,Net-(R10-Pad2)*%
X128205000Y-86500000D03*
%TO.P,U3,4*%
%TO.N,GND*%
X130745000Y-86500000D03*
%TO.P,U3,5*%
%TO.N,Net-(R11-Pad2)*%
X133285000Y-86500000D03*
%TO.P,U3,6*%
%TO.N,GND*%
X135825000Y-86500000D03*
%TO.P,U3,7*%
%TO.N,Net-(R12-Pad2)*%
X138365000Y-86500000D03*
%TO.P,U3,8*%
%TO.N,GND*%
X140905000Y-86500000D03*
%TO.P,U3,9*%
X140905000Y-78880000D03*
%TO.P,U3,10*%
%TO.N,Net-(R16-Pad1)*%
X138365000Y-78880000D03*
%TO.P,U3,11*%
%TO.N,GND*%
X135825000Y-78880000D03*
%TO.P,U3,12*%
%TO.N,Net-(R15-Pad1)*%
X133285000Y-78880000D03*
%TO.P,U3,13*%
%TO.N,GND*%
X130745000Y-78880000D03*
%TO.P,U3,14*%
%TO.N,Net-(R14-Pad1)*%
X128205000Y-78880000D03*
%TO.P,U3,15*%
%TO.N,GND*%
X125665000Y-78880000D03*
%TO.P,U3,16*%
%TO.N,Net-(R13-Pad1)*%
X123125000Y-78880000D03*
%TD*%
D29*
%TO.P,D1,1,VDD*%
%TO.N,+5V*%
X103550000Y-45850000D03*
%TO.P,D1,2,DOUT*%
%TO.N,unconnected-(D1-DOUT-Pad2)*%
X103550000Y-49150000D03*
%TO.P,D1,3,VSS*%
%TO.N,GND*%
X108450000Y-49150000D03*
%TO.P,D1,4,DIN*%
%TO.N,Net-(D1-DIN)*%
X108450000Y-45850000D03*
%TD*%
D21*
%TO.P,R19,1*%
%TO.N,Net-(Q6-B)*%
X148000000Y-88500000D03*
%TO.P,R19,2*%
%TO.N,FF S\u00FCd Tx*%
X148000000Y-86500000D03*
%TD*%
D15*
%TO.P,J12,1,Pin_1*%
%TO.N,+12V*%
X80000000Y-93540000D03*
D16*
%TO.P,J12,2,Pin_2*%
%TO.N,Net-(J12-Pin_2)*%
X80000000Y-91000000D03*
%TO.P,J12,3,Pin_3*%
%TO.N,Net-(J12-Pin_3)*%
X80000000Y-88460000D03*
%TO.P,J12,4,Pin_4*%
%TO.N,Net-(J12-Pin_4)*%
X80000000Y-85920000D03*
%TD*%
D30*
%TO.P,K2,11*%
%TO.N,unconnected-(K2-Pad11)*%
X180802500Y-66737500D03*
%TO.P,K2,12*%
%TO.N,unconnected-(K2-Pad12)*%
X185882500Y-66737500D03*
%TO.P,K2,14*%
%TO.N,unconnected-(K2-Pad14)*%
X190962500Y-66737500D03*
%TO.P,K2,21*%
%TO.N,Net-(J6-Pin_7)*%
X180802500Y-59117500D03*
%TO.P,K2,22*%
%TO.N,Net-(J6-Pin_6)*%
X185882500Y-59117500D03*
%TO.P,K2,24*%
%TO.N,unconnected-(K2-Pad24)*%
X190962500Y-59117500D03*
D31*
%TO.P,K2,A1*%
%TO.N,Net-(Q2-C)*%
X173182500Y-66737500D03*
D30*
%TO.P,K2,A2*%
%TO.N,GND*%
X173182500Y-59117500D03*
%TD*%
D32*
%TO.P,J1,0,PAD*%
%TO.N,unconnected-(J1-PAD-Pad0)*%
X97345000Y-100460000D03*
X122345000Y-100460000D03*
D25*
%TO.P,J1,1,1*%
%TO.N,/Block Kommunikation/FM Nord Tx*%
X115385000Y-100160000D03*
D30*
%TO.P,J1,2,2*%
%TO.N,FF Nord Tx*%
X112615000Y-100160000D03*
%TO.P,J1,3,3*%
%TO.N,+12V*%
X109845000Y-100160000D03*
%TO.P,J1,4,4*%
X107075000Y-100160000D03*
%TO.P,J1,5,5*%
%TO.N,GND*%
X104305000Y-100160000D03*
%TO.P,J1,6,6*%
X114000000Y-103000000D03*
%TO.P,J1,7,7*%
%TO.N,Net-(J1-Pad7)*%
X111230000Y-103000000D03*
%TO.P,J1,8,8*%
%TO.N,Net-(J1-Pad8)*%
X108460000Y-103000000D03*
%TO.P,J1,9,9*%
%TO.N,unconnected-(J1-Pad9)*%
X105690000Y-103000000D03*
%TD*%
D29*
%TO.P,D2,1,VDD*%
%TO.N,+5V*%
X103550000Y-57350000D03*
%TO.P,D2,2,DOUT*%
%TO.N,Net-(D1-DIN)*%
X103550000Y-60650000D03*
%TO.P,D2,3,VSS*%
%TO.N,GND*%
X108450000Y-60650000D03*
%TO.P,D2,4,DIN*%
%TO.N,Net-(D2-DIN)*%
X108450000Y-57350000D03*
%TD*%
D21*
%TO.P,R3,1*%
%TO.N,Net-(J10-Pin_2)*%
X118000000Y-59500000D03*
%TO.P,R3,2*%
%TO.N,Net-(R3-Pad2)*%
X118000000Y-57500000D03*
%TD*%
%TO.P,R13,1*%
%TO.N,Net-(R13-Pad1)*%
X123000000Y-75500000D03*
%TO.P,R13,2*%
%TO.N,FF_S\u00FCd_Rx*%
X123000000Y-73500000D03*
%TD*%
%TO.P,R18,1*%
%TO.N,+12V*%
X144500000Y-91500000D03*
%TO.P,R18,2*%
%TO.N,/Block Kommunikation/FM Nord Tx*%
X144500000Y-89500000D03*
%TD*%
D17*
%TO.P,Q8,1,C*%
%TO.N,FF Nord Tx*%
X117860000Y-78270000D03*
D18*
%TO.P,Q8,2,B*%
%TO.N,Net-(Q8-B)*%
X117860000Y-77000000D03*
%TO.P,Q8,3,E*%
%TO.N,GND*%
X117860000Y-75730000D03*
%TD*%
D21*
%TO.P,R12,1*%
%TO.N,Net-(J2-Pad2)*%
X138500000Y-92000000D03*
%TO.P,R12,2*%
%TO.N,Net-(R12-Pad2)*%
X138500000Y-90000000D03*
%TD*%
D17*
%TO.P,Q6,1,C*%
%TO.N,FF S\u00FCd Tx*%
X152360000Y-93270000D03*
D18*
%TO.P,Q6,2,B*%
%TO.N,Net-(Q6-B)*%
X152360000Y-92000000D03*
%TO.P,Q6,3,E*%
%TO.N,GND*%
X152360000Y-90730000D03*
%TD*%
D15*
%TO.P,J16,1,Pin_1*%
%TO.N,Net-(J16-Pin_1)*%
X178000000Y-89500000D03*
D16*
%TO.P,J16,2,Pin_2*%
%TO.N,Net-(J16-Pin_2)*%
X175460000Y-89500000D03*
%TD*%
D33*
%TO.P,JP5,1,A*%
%TO.N,Net-(JP5-A)*%
X168960000Y-19000000D03*
D34*
%TO.P,JP5,2,B*%
%TO.N,+5V*%
X174040000Y-19000000D03*
%TD*%
D35*
%TO.P,R21,1*%
%TO.N,Net-(Q7-B)*%
X157000000Y-80500000D03*
%TO.P,R21,2*%
%TO.N,FM S\u00FCd Tx*%
X157000000Y-82500000D03*
%TD*%
D36*
%TO.P,R27,1*%
%TO.N,Net-(Q2-B)*%
X159500000Y-87600000D03*
%TO.P,R27,2*%
%TO.N,Fahrstrom S\u00FCd*%
X159500000Y-84500000D03*
%TD*%
D15*
%TO.P,J11,1,Pin_1*%
%TO.N,+12V*%
X79920000Y-60500000D03*
D16*
%TO.P,J11,2,Pin_2*%
%TO.N,Net-(J11-Pin_2)*%
X82460000Y-60500000D03*
%TO.P,J11,3,Pin_3*%
%TO.N,GND*%
X85000000Y-60500000D03*
%TD*%
D15*
%TO.P,J10,1,Pin_1*%
%TO.N,GND*%
X94225000Y-59500000D03*
D16*
%TO.P,J10,2,Pin_2*%
%TO.N,Net-(J10-Pin_2)*%
X96765000Y-59500000D03*
%TD*%
D24*
%TO.P,R6,1*%
%TO.N,Net-(R6-Pad1)*%
X129000000Y-32000000D03*
%TO.P,R6,2*%
%TO.N,/RLT Nord*%
X131000000Y-32000000D03*
%TD*%
D30*
%TO.P,K1,11*%
%TO.N,unconnected-(K1-Pad11)*%
X180302500Y-50237500D03*
%TO.P,K1,12*%
%TO.N,unconnected-(K1-Pad12)*%
X185382500Y-50237500D03*
%TO.P,K1,14*%
%TO.N,unconnected-(K1-Pad14)*%
X190462500Y-50237500D03*
%TO.P,K1,21*%
%TO.N,Net-(J6-Pin_2)*%
X180302500Y-42617500D03*
%TO.P,K1,22*%
%TO.N,Net-(J6-Pin_1)*%
X185382500Y-42617500D03*
%TO.P,K1,24*%
%TO.N,unconnected-(K1-Pad24)*%
X190462500Y-42617500D03*
D31*
%TO.P,K1,A1*%
%TO.N,Net-(Q1-C)*%
X172682500Y-50237500D03*
D30*
%TO.P,K1,A2*%
%TO.N,GND*%
X172682500Y-42617500D03*
%TD*%
D15*
%TO.P,J15,1,Pin_1*%
%TO.N,Net-(J14-Pin_1)*%
X189000000Y-89500000D03*
D16*
%TO.P,J15,2,Pin_2*%
%TO.N,Net-(J15-Pin_2)*%
X186460000Y-89500000D03*
%TD*%
D20*
%TO.P,R28,1*%
%TO.N,+12V*%
X163900000Y-93000000D03*
%TO.P,R28,2*%
%TO.N,Net-(Q2-C)*%
X167000000Y-93000000D03*
%TD*%
D37*
%TO.P,U7,1,VI*%
%TO.N,+12V*%
X184500000Y-24500000D03*
D38*
%TO.P,U7,2,GND*%
%TO.N,GND*%
X184500000Y-21960000D03*
%TO.P,U7,3,VO*%
%TO.N,+5V*%
X184500000Y-19420000D03*
%TD*%
D19*
%TO.P,R22,1*%
%TO.N,+12V*%
X167000000Y-61500000D03*
%TO.P,R22,2*%
%TO.N,FM S\u00FCd Tx*%
X165000000Y-61500000D03*
%TD*%
D22*
%TO.P,JP2,1,A*%
%TO.N,Net-(J6-Pin_2)*%
X186500000Y-75000000D03*
D23*
%TO.P,JP2,2,B*%
%TO.N,Net-(J14-Pin_2)*%
X186500000Y-76450000D03*
%TD*%
D24*
%TO.P,R17,1*%
%TO.N,Net-(Q5-B)*%
X117000000Y-81500000D03*
%TO.P,R17,2*%
%TO.N,FM Nord TX*%
X119000000Y-81500000D03*
%TD*%
D25*
%TO.P,U6,1,I1*%
%TO.N,Net-(U4-OUTR)*%
X97800000Y-92150000D03*
D26*
%TO.P,U6,2,I2*%
%TO.N,Net-(U4-OUTG)*%
X97800000Y-89610000D03*
%TO.P,U6,3,I3*%
%TO.N,Net-(U4-OUTB)*%
X97800000Y-87070000D03*
%TO.P,U6,4,I4*%
%TO.N,Net-(U5-OUTR)*%
X97800000Y-84530000D03*
%TO.P,U6,5,I5*%
%TO.N,Net-(U5-OUTG)*%
X97800000Y-81990000D03*
%TO.P,U6,6,I6*%
%TO.N,Net-(U5-OUTB)*%
X97800000Y-79450000D03*
%TO.P,U6,7,I7*%
%TO.N,unconnected-(U6-I7-Pad7)*%
X97800000Y-76910000D03*
%TO.P,U6,8,I8*%
%TO.N,unconnected-(U6-I8-Pad8)*%
X97800000Y-74370000D03*
%TO.P,U6,9,GND*%
%TO.N,GND*%
X97800000Y-71830000D03*
%TO.P,U6,10,COM*%
%TO.N,+12V*%
X90180000Y-71830000D03*
%TO.P,U6,11,O8*%
%TO.N,unconnected-(U6-O8-Pad11)*%
X90180000Y-74370000D03*
%TO.P,U6,12,O7*%
%TO.N,unconnected-(U6-O7-Pad12)*%
X90180000Y-76910000D03*
%TO.P,U6,13,O6*%
%TO.N,Net-(J13-Pin_4)*%
X90180000Y-79450000D03*
%TO.P,U6,14,O5*%
%TO.N,Net-(J13-Pin_3)*%
X90180000Y-81990000D03*
%TO.P,U6,15,O4*%
%TO.N,Net-(J13-Pin_2)*%
X90180000Y-84530000D03*
%TO.P,U6,16,O3*%
%TO.N,Net-(J12-Pin_4)*%
X90180000Y-87070000D03*
%TO.P,U6,17,O2*%
%TO.N,Net-(J12-Pin_3)*%
X90180000Y-89610000D03*
%TO.P,U6,18,O1*%
%TO.N,Net-(J12-Pin_2)*%
X90180000Y-92150000D03*
%TD*%
D15*
%TO.P,J18,1,Pin_1*%
%TO.N,GND*%
X198475000Y-37250000D03*
D16*
%TO.P,J18,2,Pin_2*%
%TO.N,+12V*%
X198475000Y-34710000D03*
%TD*%
D21*
%TO.P,R16,1*%
%TO.N,Net-(R16-Pad1)*%
X138000000Y-75500000D03*
%TO.P,R16,2*%
%TO.N,FF Nord Rx*%
X138000000Y-73500000D03*
%TD*%
D15*
%TO.P,J3,1,Pin_1*%
%TO.N,GND*%
X80500000Y-22260000D03*
D16*
%TO.P,J3,2,Pin_2*%
X80500000Y-24800000D03*
%TO.P,J3,3,Pin_3*%
%TO.N,Net-(J3-Pin_3)*%
X80500000Y-27340000D03*
%TO.P,J3,4,Pin_4*%
%TO.N,Net-(J3-Pin_4)*%
X80500000Y-29880000D03*
%TO.P,J3,5,Pin_5*%
%TO.N,GND*%
X80500000Y-32420000D03*
%TO.P,J3,6,Pin_6*%
X80500000Y-34960000D03*
%TO.P,J3,7,Pin_7*%
%TO.N,Net-(J3-Pin_7)*%
X80500000Y-37500000D03*
%TO.P,J3,8,Pin_8*%
%TO.N,Net-(J3-Pin_8)*%
X80500000Y-40040000D03*
%TD*%
D21*
%TO.P,R15,1*%
%TO.N,Net-(R15-Pad1)*%
X133000000Y-75500000D03*
%TO.P,R15,2*%
%TO.N,FM_Nord_Rx*%
X133000000Y-73500000D03*
%TD*%
D19*
%TO.P,R30,1*%
%TO.N,/T Nord*%
X93000000Y-30000000D03*
%TO.P,R30,2*%
%TO.N,Net-(J3-Pin_4)*%
X91000000Y-30000000D03*
%TD*%
D22*
%TO.P,JP3,1,A*%
%TO.N,Net-(J6-Pin_6)*%
X174500000Y-74775000D03*
D23*
%TO.P,JP3,2,B*%
%TO.N,Net-(J17-Pin_2)*%
X174500000Y-76225000D03*
%TD*%
D32*
%TO.P,J2,0,PAD*%
%TO.N,unconnected-(J2-PAD-Pad0)*%
X134490000Y-100794669D03*
X159490000Y-100794669D03*
D25*
%TO.P,J2,1,1*%
%TO.N,Net-(J2-Pad1)*%
X141450000Y-100494669D03*
D30*
%TO.P,J2,2,2*%
%TO.N,Net-(J2-Pad2)*%
X144220000Y-100494669D03*
%TO.P,J2,3,3*%
%TO.N,+12V*%
X146990000Y-100494669D03*
%TO.P,J2,4,4*%
X149760000Y-100494669D03*
%TO.P,J2,5,5*%
%TO.N,GND*%
X152530000Y-100494669D03*
%TO.P,J2,6,6*%
X142835000Y-103334669D03*
%TO.P,J2,7,7*%
%TO.N,FF S\u00FCd Tx*%
X145605000Y-103334669D03*
%TO.P,J2,8,8*%
%TO.N,FM S\u00FCd Tx*%
X148375000Y-103334669D03*
%TO.P,J2,9,9*%
%TO.N,unconnected-(J2-Pad9)*%
X151145000Y-103334669D03*
%TD*%
D21*
%TO.P,R1,1*%
%TO.N,Net-(J8-Pin_2)*%
X96000000Y-44000000D03*
%TO.P,R1,2*%
%TO.N,Net-(R1-Pad2)*%
X96000000Y-42000000D03*
%TD*%
D24*
%TO.P,R2,1*%
%TO.N,Net-(J9-Pin_2)*%
X82000000Y-44500000D03*
%TO.P,R2,2*%
%TO.N,Net-(R2-Pad2)*%
X84000000Y-44500000D03*
%TD*%
%TO.P,R23,1*%
%TO.N,Net-(Q8-B)*%
X116000000Y-72000000D03*
%TO.P,R23,2*%
%TO.N,FF Nord Tx*%
X118000000Y-72000000D03*
%TD*%
D36*
%TO.P,R25,1*%
%TO.N,Net-(Q1-B)*%
X167000000Y-72000000D03*
%TO.P,R25,2*%
%TO.N,Fahrstrom Nord*%
X167000000Y-68900000D03*
%TD*%
D39*
%TO.N,/S S\u00FCd*%
X131000000Y-48500000D03*
%TO.N,+5V*%
X147500000Y-17000000D03*
X100500000Y-63500000D03*
X100500000Y-58000000D03*
X100500000Y-45500000D03*
%TO.N,Net-(D1-DIN)*%
X99500000Y-48000000D03*
X99500000Y-60500000D03*
%TO.N,Net-(D2-DIN)*%
X111000000Y-58500000D03*
%TO.N,Net-(J6-Pin_1)*%
X193500000Y-73500000D03*
%TO.N,Net-(J16-Pin_2)*%
X177500000Y-80500000D03*
%TO.N,Net-(Q2-C)*%
X169000000Y-84500000D03*
%TO.N,/LED-Pin*%
X127000000Y-65500000D03*
X131500000Y-65500000D03*
%TD*%
D40*
%TO.N,GND*%
X113000000Y-76000000D02*
X110820000Y-78180000D01*
X113000000Y-71000000D02*
X113000000Y-76000000D01*
X112000000Y-61000000D02*
X112000000Y-70000000D01*
X112000000Y-70000000D02*
X113000000Y-71000000D01*
X110820000Y-78180000D02*
X110820000Y-79800000D01*
X111650000Y-60650000D02*
X112000000Y-61000000D01*
X108450000Y-60650000D02*
X111650000Y-60650000D01*
X108450000Y-49150000D02*
X113875000Y-49150000D01*
X113875000Y-49150000D02*
X114700000Y-48325000D01*
X178500000Y-21500000D02*
X184040000Y-21500000D01*
X184040000Y-21500000D02*
X184500000Y-21960000D01*
X177000000Y-27000000D02*
X178500000Y-27000000D01*
X176000000Y-26000000D02*
X177000000Y-27000000D01*
X177500000Y-21500000D02*
X176000000Y-23000000D01*
X176000000Y-23000000D02*
X176000000Y-26000000D01*
X178500000Y-21500000D02*
X177500000Y-21500000D01*
%TO.N,Net-(J14-Pin_2)*%
X188050000Y-76450000D02*
X186500000Y-76450000D01*
X188500000Y-73500000D02*
X188500000Y-76000000D01*
X188500000Y-76000000D02*
X188050000Y-76450000D01*
X191000000Y-71000000D02*
X188500000Y-73500000D01*
X200000000Y-74690000D02*
X200000000Y-71000000D01*
X200000000Y-71000000D02*
X191000000Y-71000000D01*
X198525000Y-76165000D02*
X200000000Y-74690000D01*
%TO.N,Net-(Q1-C)*%
X170000000Y-77500000D02*
X170000000Y-52920000D01*
X169770000Y-77500000D02*
X170000000Y-77500000D01*
X170000000Y-52920000D02*
X172682500Y-50237500D01*
X165500000Y-78770000D02*
X168500000Y-78770000D01*
X168500000Y-78770000D02*
X169770000Y-77500000D01*
%TO.N,+12V*%
X163400000Y-70600000D02*
X163400000Y-82500000D01*
X164000000Y-70000000D02*
X163400000Y-70600000D01*
X169000000Y-70000000D02*
X164000000Y-70000000D01*
X169000000Y-67000000D02*
X169000000Y-70000000D01*
X167000000Y-65000000D02*
X169000000Y-67000000D01*
X167000000Y-61500000D02*
X167000000Y-65000000D01*
%TO.N,/Reed Nord*%
X136500000Y-28500000D02*
X131000000Y-28500000D01*
X136510000Y-28490000D02*
X136500000Y-28500000D01*
X140110000Y-28490000D02*
X136510000Y-28490000D01*
%TO.N,Net-(JP5-A)*%
X166000000Y-19000000D02*
X161590000Y-23410000D01*
X161590000Y-23410000D02*
X157890000Y-23410000D01*
X168960000Y-19000000D02*
X166000000Y-19000000D01*
%TO.N,+5V*%
X172500000Y-17460000D02*
X172500000Y-17000000D01*
X174040000Y-19000000D02*
X172500000Y-17460000D01*
%TO.N,/T S\u00FCd*%
X135730000Y-46270000D02*
X140110000Y-46270000D01*
X121500000Y-57500000D02*
X124500000Y-57500000D01*
X119000000Y-55000000D02*
X121500000Y-57500000D01*
X124500000Y-57500000D02*
X135730000Y-46270000D01*
X119000000Y-33500000D02*
X119000000Y-55000000D01*
X109000000Y-35000000D02*
X110500000Y-33500000D01*
X110500000Y-33500000D02*
X119000000Y-33500000D01*
X93000000Y-35000000D02*
X109000000Y-35000000D01*
%TO.N,/S S\u00FCd*%
X131000000Y-49000000D02*
X131000000Y-48500000D01*
X130000000Y-50000000D02*
X131000000Y-49000000D01*
X129500000Y-50000000D02*
X130000000Y-50000000D01*
X120000000Y-54500000D02*
X122000000Y-56500000D01*
X120000000Y-32500000D02*
X120000000Y-54500000D01*
X98000000Y-32500000D02*
X120000000Y-32500000D01*
X122000000Y-56500000D02*
X123000000Y-56500000D01*
X123000000Y-56500000D02*
X129500000Y-50000000D01*
%TO.N,FF Nord Tx*%
X161390000Y-53890000D02*
X157890000Y-53890000D01*
X161500000Y-54000000D02*
X161390000Y-53890000D01*
X162000000Y-54000000D02*
X161500000Y-54000000D01*
X163500000Y-52500000D02*
X162000000Y-54000000D01*
X165000000Y-52500000D02*
X163500000Y-52500000D01*
%TO.N,FF S\u00FCd Tx*%
X163530000Y-58970000D02*
X157890000Y-58970000D01*
X165000000Y-57500000D02*
X163530000Y-58970000D01*
%TO.N,FM S\u00FCd Tx*%
X157900000Y-61500000D02*
X157890000Y-61510000D01*
X165000000Y-61500000D02*
X157900000Y-61500000D01*
%TO.N,+5V*%
X177080000Y-32000000D02*
X174040000Y-28960000D01*
X183690000Y-32000000D02*
X177080000Y-32000000D01*
X174040000Y-28960000D02*
X171500000Y-31500000D01*
X174040000Y-19000000D02*
X174040000Y-28960000D01*
X177000000Y-19000000D02*
X174040000Y-19000000D01*
X178500000Y-19600000D02*
X177600000Y-19600000D01*
X177600000Y-19600000D02*
X177000000Y-19000000D01*
X178680000Y-19420000D02*
X178500000Y-19600000D01*
X184500000Y-19420000D02*
X178680000Y-19420000D01*
%TO.N,+12V*%
X184000000Y-24500000D02*
X183400000Y-25100000D01*
X183400000Y-25100000D02*
X178500000Y-25100000D01*
X184500000Y-24500000D02*
X184000000Y-24500000D01*
X189000000Y-32000000D02*
X191310000Y-32000000D01*
X184500000Y-27500000D02*
X189000000Y-32000000D01*
X184500000Y-24500000D02*
X184500000Y-27500000D01*
X177710000Y-41000000D02*
X184000000Y-34710000D01*
X167000000Y-41000000D02*
X177710000Y-41000000D01*
X167000000Y-52500000D02*
X167000000Y-41000000D01*
X191310000Y-32000000D02*
X191310000Y-34520000D01*
X198475000Y-34710000D02*
X191500000Y-34710000D01*
X191500000Y-34710000D02*
X184000000Y-34710000D01*
X191310000Y-34520000D02*
X191500000Y-34710000D01*
%TO.N,+5V*%
X147500000Y-17000000D02*
X172500000Y-17000000D01*
X101150000Y-57350000D02*
X103550000Y-57350000D01*
X100000000Y-68500000D02*
X100000000Y-68980000D01*
X100000000Y-68980000D02*
X103200000Y-72180000D01*
X101350000Y-45850000D02*
X103550000Y-45850000D01*
X100500000Y-58000000D02*
X101150000Y-57350000D01*
X95000000Y-83285635D02*
X97344365Y-85630000D01*
X97344365Y-85630000D02*
X102250000Y-85630000D01*
X100500000Y-45500000D02*
X101000000Y-45500000D01*
X102250000Y-85630000D02*
X103200000Y-84680000D01*
X101000000Y-45500000D02*
X101350000Y-45850000D01*
X175080000Y-19420000D02*
X175000000Y-19500000D01*
X95000000Y-68500000D02*
X100000000Y-68500000D01*
X100500000Y-63500000D02*
X100500000Y-68000000D01*
X100500000Y-68000000D02*
X100000000Y-68500000D01*
X95000000Y-68500000D02*
X95000000Y-83285635D01*
%TO.N,Net-(D1-DIN)*%
X106300000Y-48000000D02*
X108450000Y-45850000D01*
X99500000Y-48000000D02*
X106300000Y-48000000D01*
X99650000Y-60650000D02*
X99500000Y-60500000D01*
X103550000Y-60650000D02*
X99650000Y-60650000D01*
%TO.N,Net-(D2-DIN)*%
X111000000Y-58500000D02*
X109850000Y-57350000D01*
X109850000Y-57350000D02*
X108450000Y-57350000D01*
%TO.N,Net-(J1-Pad8)*%
X112330000Y-102170000D02*
X112330000Y-103455635D01*
X114000000Y-101000000D02*
X113500000Y-101500000D01*
X112330000Y-103455635D02*
X111685635Y-104100000D01*
X128000000Y-92050000D02*
X126050000Y-94000000D01*
X114000000Y-97500000D02*
X114000000Y-101000000D01*
X109560000Y-104100000D02*
X108460000Y-103000000D01*
X113500000Y-101500000D02*
X113000000Y-101500000D01*
X111685635Y-104100000D02*
X109560000Y-104100000D01*
X117500000Y-94000000D02*
X114000000Y-97500000D01*
X126050000Y-94000000D02*
X117500000Y-94000000D01*
X113000000Y-101500000D02*
X112330000Y-102170000D01*
%TO.N,+12V*%
X101000000Y-105000000D02*
X102500000Y-106500000D01*
X77920000Y-80580000D02*
X77920000Y-70000000D01*
X77500000Y-60000000D02*
X77500000Y-50920000D01*
X77920000Y-80580000D02*
X77500000Y-81000000D01*
X79920000Y-60500000D02*
X78000000Y-60500000D01*
X77920000Y-70000000D02*
X87500000Y-70000000D01*
X78040000Y-93540000D02*
X80000000Y-93540000D01*
X166500000Y-84500000D02*
X165000000Y-84500000D01*
X107075000Y-100160000D02*
X109845000Y-100160000D01*
X84540000Y-93540000D02*
X88000000Y-97000000D01*
X146990000Y-100494669D02*
X149760000Y-100494669D01*
X101000000Y-97000000D02*
X105500000Y-97000000D01*
X146990000Y-94540000D02*
X144500000Y-92050000D01*
X163900000Y-96000000D02*
X163900000Y-93000000D01*
X167000000Y-61500000D02*
X167000000Y-57500000D01*
X88000000Y-70500000D02*
X88850000Y-70500000D01*
X102500000Y-106500000D02*
X147000000Y-106500000D01*
X77920000Y-60580000D02*
X78000000Y-60500000D01*
X163900000Y-106100000D02*
X163900000Y-96000000D01*
X101000000Y-97000000D02*
X101000000Y-105000000D01*
X80000000Y-93540000D02*
X84540000Y-93540000D01*
X165000000Y-84500000D02*
X163400000Y-82900000D01*
X184000000Y-25000000D02*
X184500000Y-24500000D01*
X88850000Y-70500000D02*
X90180000Y-71830000D01*
X169000000Y-96000000D02*
X169000000Y-87000000D01*
X105500000Y-97000000D02*
X107075000Y-98575000D01*
X77920000Y-70000000D02*
X77920000Y-60580000D01*
X169000000Y-87000000D02*
X166500000Y-84500000D01*
X78000000Y-93500000D02*
X78040000Y-93540000D01*
X163900000Y-96000000D02*
X169000000Y-96000000D01*
X146990000Y-106490000D02*
X146990000Y-100494669D01*
X107075000Y-98575000D02*
X107075000Y-100160000D01*
X88000000Y-97000000D02*
X101000000Y-97000000D01*
X147000000Y-106500000D02*
X146990000Y-106490000D01*
X163500000Y-106500000D02*
X163900000Y-106100000D01*
X147000000Y-106500000D02*
X163500000Y-106500000D01*
X87500000Y-70000000D02*
X88000000Y-70500000D01*
X167000000Y-57500000D02*
X167000000Y-52500000D01*
X163400000Y-82900000D02*
X163400000Y-82500000D01*
X146990000Y-100494669D02*
X146990000Y-94540000D01*
X77500000Y-81000000D02*
X78000000Y-81500000D01*
X78000000Y-60500000D02*
X77500000Y-60000000D01*
X167000000Y-61500000D02*
X167500000Y-62000000D01*
X77500000Y-50920000D02*
X79420000Y-49000000D01*
X78000000Y-81500000D02*
X78000000Y-93500000D01*
X80000000Y-80580000D02*
X77920000Y-80580000D01*
%TO.N,FF Nord Tx*%
X119565686Y-73500000D02*
X120565686Y-74500000D01*
X120565686Y-74500000D02*
X143000000Y-74500000D01*
X143000000Y-74500000D02*
X144000000Y-73500000D01*
X144000000Y-73500000D02*
X144000000Y-67780000D01*
X119500000Y-73500000D02*
X118000000Y-72000000D01*
X119500000Y-78000000D02*
X119500000Y-73500000D01*
X119230000Y-78270000D02*
X119500000Y-78000000D01*
X144000000Y-67780000D02*
X157890000Y-53890000D01*
X119500000Y-73500000D02*
X119565686Y-73500000D01*
X117860000Y-78270000D02*
X119230000Y-78270000D01*
%TO.N,Net-(J1-Pad7)*%
X111230000Y-97770000D02*
X111230000Y-103000000D01*
X116950000Y-92050000D02*
X111230000Y-97770000D01*
X122500000Y-92050000D02*
X116950000Y-92050000D01*
%TO.N,/Block Kommunikation/FM Nord Tx*%
X118000000Y-87270000D02*
X120230000Y-87270000D01*
X121500000Y-86000000D02*
X121500000Y-85000000D01*
X142500000Y-85000000D02*
X144500000Y-87000000D01*
X144500000Y-87000000D02*
X144500000Y-88950000D01*
X120230000Y-87270000D02*
X121500000Y-86000000D01*
X121500000Y-85000000D02*
X142500000Y-85000000D01*
%TO.N,FF S\u00FCd Tx*%
X154500000Y-73000000D02*
X154500000Y-62360000D01*
X145605000Y-103334669D02*
X145605000Y-96605000D01*
X143325000Y-90675000D02*
X143500000Y-90500000D01*
X143325000Y-94325000D02*
X143325000Y-90675000D01*
X149000000Y-91000000D02*
X151270000Y-93270000D01*
X148000000Y-91000000D02*
X149000000Y-91000000D01*
X146000000Y-90500000D02*
X147500000Y-90500000D01*
X154500000Y-62360000D02*
X157890000Y-58970000D01*
X146000000Y-87000000D02*
X146000000Y-90500000D01*
X148000000Y-79500000D02*
X154500000Y-73000000D01*
X145605000Y-96605000D02*
X143325000Y-94325000D01*
X143500000Y-90500000D02*
X146000000Y-90500000D01*
X148000000Y-86500000D02*
X146500000Y-86500000D01*
X151270000Y-93270000D02*
X152360000Y-93270000D01*
X146500000Y-86500000D02*
X146000000Y-87000000D01*
X147500000Y-90500000D02*
X148000000Y-91000000D01*
X148000000Y-86500000D02*
X148000000Y-79500000D01*
%TO.N,Net-(J2-Pad1)*%
X141450000Y-100494669D02*
X141444669Y-100494669D01*
X141444669Y-100494669D02*
X133000000Y-92050000D01*
%TO.N,FM S\u00FCd Tx*%
X156000000Y-71000000D02*
X156000000Y-63400000D01*
X158500000Y-82500000D02*
X158500000Y-73500000D01*
X154000000Y-102000000D02*
X154000000Y-87410000D01*
X154000000Y-87410000D02*
X152360000Y-85770000D01*
X158500000Y-73500000D02*
X156000000Y-71000000D01*
X149709669Y-102000000D02*
X154000000Y-102000000D01*
X154730000Y-85770000D02*
X157000000Y-83500000D01*
X152360000Y-85770000D02*
X154730000Y-85770000D01*
X156000000Y-63400000D02*
X157890000Y-61510000D01*
X148375000Y-103334669D02*
X149709669Y-102000000D01*
X157000000Y-82500000D02*
X158500000Y-82500000D01*
X157000000Y-83500000D02*
X157000000Y-82500000D01*
%TO.N,Net-(J2-Pad2)*%
X144220000Y-100494669D02*
X144220000Y-97720000D01*
X144220000Y-97720000D02*
X138500000Y-92000000D01*
%TO.N,Net-(J8-Pin_2)*%
X96040000Y-44040000D02*
X96000000Y-44000000D01*
X95650000Y-48350000D02*
X95950000Y-48350000D01*
X96040000Y-48000000D02*
X96040000Y-44040000D01*
%TO.N,Net-(J9-Pin_2)*%
X82000000Y-48460000D02*
X81960000Y-48500000D01*
X82000000Y-44500000D02*
X82000000Y-48460000D01*
%TO.N,Net-(J10-Pin_2)*%
X96765000Y-59500000D02*
X118000000Y-59500000D01*
%TO.N,Net-(J11-Pin_2)*%
X82460000Y-56040000D02*
X82500000Y-56000000D01*
X82460000Y-60500000D02*
X82460000Y-56040000D01*
%TO.N,Net-(J12-Pin_3)*%
X89030000Y-88460000D02*
X90180000Y-89610000D01*
X80000000Y-88460000D02*
X89030000Y-88460000D01*
%TO.N,Net-(J12-Pin_4)*%
X80000000Y-85920000D02*
X89030000Y-85920000D01*
X89030000Y-85920000D02*
X90180000Y-87070000D01*
%TO.N,Net-(J12-Pin_2)*%
X80000000Y-91000000D02*
X89030000Y-91000000D01*
X89030000Y-91000000D02*
X90180000Y-92150000D01*
%TO.N,Net-(J13-Pin_3)*%
X80000000Y-75500000D02*
X82500000Y-75500000D01*
X83500000Y-76500000D02*
X83500000Y-80500000D01*
X82500000Y-75500000D02*
X83500000Y-76500000D01*
X84990000Y-81990000D02*
X90180000Y-81990000D01*
X83500000Y-80500000D02*
X84990000Y-81990000D01*
%TO.N,Net-(J13-Pin_4)*%
X82460000Y-72960000D02*
X84500000Y-75000000D01*
X80000000Y-72960000D02*
X82460000Y-72960000D01*
X86950000Y-79450000D02*
X90180000Y-79450000D01*
X84500000Y-75000000D02*
X84500000Y-77000000D01*
X84500000Y-77000000D02*
X86950000Y-79450000D01*
%TO.N,Net-(J13-Pin_2)*%
X83530000Y-84530000D02*
X90180000Y-84530000D01*
X82500000Y-78000000D02*
X82500000Y-84000000D01*
X83000000Y-84000000D02*
X83530000Y-84530000D01*
X82460000Y-78040000D02*
X82500000Y-78000000D01*
X80000000Y-78040000D02*
X82460000Y-78040000D01*
X82500000Y-84000000D02*
X83000000Y-84000000D01*
%TO.N,Net-(J15-Pin_2)*%
X186460000Y-81765000D02*
X191500000Y-76725000D01*
X186460000Y-89500000D02*
X186460000Y-81765000D01*
X191500000Y-76725000D02*
X193775000Y-76725000D01*
X193775000Y-76725000D02*
X196875000Y-73625000D01*
X196875000Y-73625000D02*
X198525000Y-73625000D01*
%TO.N,Net-(J6-Pin_1)*%
X198525000Y-45525000D02*
X193500000Y-40500000D01*
X193500000Y-40500000D02*
X187500000Y-40500000D01*
X193275000Y-73500000D02*
X193500000Y-73500000D01*
X187500000Y-40500000D02*
X185382500Y-42617500D01*
X191500000Y-75275000D02*
X193275000Y-73500000D01*
X198525000Y-46125000D02*
X198525000Y-45525000D01*
%TO.N,Net-(J6-Pin_2)*%
X184685000Y-47000000D02*
X180302500Y-42617500D01*
X198525000Y-48665000D02*
X191165000Y-48665000D01*
X186500000Y-75000000D02*
X186500000Y-72000000D01*
X200500000Y-68500000D02*
X200500000Y-50640000D01*
X191165000Y-48665000D02*
X189500000Y-47000000D01*
X186500000Y-72000000D02*
X190000000Y-68500000D01*
X200500000Y-50640000D02*
X198525000Y-48665000D01*
X190000000Y-68500000D02*
X200500000Y-68500000D01*
X189500000Y-47000000D02*
X184685000Y-47000000D01*
%TO.N,Net-(J14-Pin_2)*%
X181420000Y-96580000D02*
X184000000Y-94000000D01*
X184000000Y-94000000D02*
X184000000Y-78950000D01*
X181420000Y-102500000D02*
X181420000Y-96580000D01*
X184000000Y-78950000D02*
X186500000Y-76450000D01*
%TO.N,Net-(J17-Pin_2)*%
X200000000Y-95500000D02*
X201000000Y-94500000D01*
X173500000Y-107000000D02*
X189500000Y-107000000D01*
X201000000Y-91340000D02*
X198525000Y-88865000D01*
X189500000Y-107000000D02*
X189500000Y-96500000D01*
X171500000Y-105000000D02*
X173500000Y-107000000D01*
X189500000Y-96500000D02*
X190500000Y-95500000D01*
X171000000Y-102500000D02*
X171000000Y-79725000D01*
X171500000Y-103000000D02*
X171500000Y-105000000D01*
X190500000Y-95500000D02*
X200000000Y-95500000D01*
X171000000Y-102500000D02*
X171500000Y-103000000D01*
X171000000Y-79725000D02*
X174500000Y-76225000D01*
X201000000Y-94500000D02*
X201000000Y-91340000D01*
%TO.N,Net-(J6-Pin_6)*%
X175500000Y-60500000D02*
X179000000Y-57000000D01*
X185882500Y-59117500D02*
X187000000Y-58000000D01*
X187000000Y-58000000D02*
X187000000Y-57000000D01*
X174500000Y-74775000D02*
X175500000Y-73775000D01*
X184500000Y-57500000D02*
X184500000Y-57735000D01*
X184000000Y-57000000D02*
X184500000Y-57500000D01*
X179000000Y-57000000D02*
X184000000Y-57000000D01*
X196700000Y-57000000D02*
X198525000Y-58825000D01*
X187000000Y-57000000D02*
X196700000Y-57000000D01*
X184500000Y-57735000D02*
X185882500Y-59117500D01*
X175500000Y-73775000D02*
X175500000Y-60500000D01*
%TO.N,Net-(J16-Pin_2)*%
X175460000Y-82540000D02*
X181500000Y-76500000D01*
X175460000Y-89500000D02*
X175460000Y-82540000D01*
%TO.N,Net-(J6-Pin_7)*%
X183500000Y-61000000D02*
X183865000Y-61365000D01*
X182685000Y-61000000D02*
X183500000Y-61000000D01*
X177500000Y-62420000D02*
X180802500Y-59117500D01*
X180802500Y-59117500D02*
X182685000Y-61000000D01*
X183865000Y-61365000D02*
X198525000Y-61365000D01*
X177500000Y-71050000D02*
X177500000Y-62420000D01*
X181500000Y-75050000D02*
X177500000Y-71050000D01*
%TO.N,Net-(Q1-C)*%
X165500000Y-80000000D02*
X165500000Y-78770000D01*
X166500000Y-82500000D02*
X166500000Y-81000000D01*
X166500000Y-81000000D02*
X165500000Y-80000000D01*
%TO.N,Net-(Q1-B)*%
X165500000Y-77500000D02*
X167500000Y-77500000D01*
X167500000Y-77500000D02*
X168000000Y-77000000D01*
X168000000Y-77000000D02*
X168000000Y-73000000D01*
X168000000Y-73000000D02*
X167000000Y-72000000D01*
%TO.N,Net-(Q2-B)*%
X165400000Y-87600000D02*
X165500000Y-87500000D01*
X159500000Y-87600000D02*
X165400000Y-87600000D01*
%TO.N,Net-(Q2-C)*%
X173182500Y-75883186D02*
X173182500Y-66737500D01*
X167000000Y-93000000D02*
X167500000Y-93000000D01*
X165500000Y-88770000D02*
X165500000Y-91500000D01*
X165500000Y-91500000D02*
X167000000Y-93000000D01*
X169000000Y-84500000D02*
X169000000Y-80065686D01*
X169000000Y-80065686D02*
X173182500Y-75883186D01*
%TO.N,Net-(Q5-B)*%
X116500000Y-86000000D02*
X118000000Y-86000000D01*
X116500000Y-84000000D02*
X116500000Y-86000000D01*
X117000000Y-83500000D02*
X117000000Y-81500000D01*
X116500000Y-84000000D02*
X117000000Y-83500000D01*
%TO.N,Net-(Q6-B)*%
X151000000Y-92000000D02*
X152360000Y-92000000D01*
X148000000Y-89000000D02*
X151000000Y-92000000D01*
X148000000Y-88500000D02*
X148000000Y-89000000D01*
%TO.N,Net-(Q7-B)*%
X152360000Y-84500000D02*
X154500000Y-84500000D01*
X154500000Y-83000000D02*
X157000000Y-80500000D01*
X154500000Y-84500000D02*
X154500000Y-83000000D01*
%TO.N,Net-(Q8-B)*%
X114500000Y-72000000D02*
X114500000Y-77000000D01*
X116000000Y-72000000D02*
X114500000Y-72000000D01*
X114500000Y-77000000D02*
X117860000Y-77000000D01*
%TO.N,Net-(R1-Pad2)*%
X113875000Y-35625000D02*
X114700000Y-35625000D01*
X107500000Y-42000000D02*
X113875000Y-35625000D01*
X96000000Y-42000000D02*
X107500000Y-42000000D01*
%TO.N,Net-(R2-Pad2)*%
X92500000Y-44500000D02*
X94000000Y-43000000D01*
X94000000Y-43000000D02*
X112405000Y-43000000D01*
X84000000Y-44500000D02*
X92500000Y-44500000D01*
X112405000Y-43000000D02*
X114700000Y-40705000D01*
%TO.N,Net-(R3-Pad2)*%
X118000000Y-49085000D02*
X114700000Y-45785000D01*
X118000000Y-57500000D02*
X118000000Y-49085000D01*
%TO.N,Net-(R4-Pad2)*%
X100500000Y-56000000D02*
X102000000Y-54500000D01*
X102000000Y-54500000D02*
X109500000Y-54500000D01*
X109500000Y-54500000D02*
X113135000Y-50865000D01*
X113135000Y-50865000D02*
X114700000Y-50865000D01*
X84500000Y-56000000D02*
X100500000Y-56000000D01*
%TO.N,Net-(R9-Pad2)*%
X122500000Y-90050000D02*
X122500000Y-87125000D01*
X122500000Y-87125000D02*
X123125000Y-86500000D01*
%TO.N,Net-(R10-Pad2)*%
X128000000Y-86705000D02*
X128205000Y-86500000D01*
X128000000Y-90050000D02*
X128000000Y-86705000D01*
%TO.N,Net-(R11-Pad2)*%
X133000000Y-86785000D02*
X133285000Y-86500000D01*
X133000000Y-90050000D02*
X133000000Y-86785000D01*
%TO.N,Net-(R12-Pad2)*%
X138500000Y-86635000D02*
X138365000Y-86500000D01*
X138500000Y-90000000D02*
X138500000Y-86635000D01*
%TO.N,FM Nord TX*%
X153500000Y-72000000D02*
X144000000Y-81500000D01*
X153500000Y-60820000D02*
X153500000Y-72000000D01*
X157890000Y-56430000D02*
X153500000Y-60820000D01*
X144000000Y-81500000D02*
X119000000Y-81500000D01*
%TO.N,Fahrstrom Nord*%
X164690000Y-66590000D02*
X167000000Y-68900000D01*
X157890000Y-66590000D02*
X164690000Y-66590000D01*
%TO.N,Fahrstrom S\u00FCd*%
X159500000Y-84500000D02*
X159500000Y-70740000D01*
X159500000Y-70740000D02*
X157890000Y-69130000D01*
%TO.N,Net-(R5-Pad1)*%
X129000000Y-28945000D02*
X129000000Y-28500000D01*
X122320000Y-35625000D02*
X129000000Y-28945000D01*
%TO.N,Net-(R7-Pad1)*%
X122320000Y-45785000D02*
X129000000Y-39105000D01*
X129000000Y-39105000D02*
X129000000Y-37000000D01*
%TO.N,Net-(R6-Pad1)*%
X129000000Y-34025000D02*
X129000000Y-32000000D01*
X122320000Y-40705000D02*
X129000000Y-34025000D01*
%TO.N,Net-(R8-Pad1)*%
X128500000Y-42000000D02*
X128500000Y-44685000D01*
X128500000Y-44685000D02*
X122320000Y-50865000D01*
%TO.N,FM_S\u00FCd_Rx*%
X133500000Y-62000000D02*
X139620000Y-62000000D01*
X128000000Y-67500000D02*
X133500000Y-62000000D01*
X139620000Y-62000000D02*
X140110000Y-61510000D01*
X128000000Y-73500000D02*
X128000000Y-67500000D01*
%TO.N,FF_S\u00FCd_Rx*%
X135030000Y-58970000D02*
X140110000Y-58970000D01*
X123000000Y-73500000D02*
X123000000Y-71000000D01*
X123000000Y-71000000D02*
X135030000Y-58970000D01*
%TO.N,/Reed S\u00FCd*%
X134430000Y-33570000D02*
X140110000Y-33570000D01*
X131000000Y-37000000D02*
X134430000Y-33570000D01*
%TO.N,/S Nord*%
X98000000Y-27500000D02*
X107500000Y-27500000D01*
X143000000Y-16000000D02*
X144000000Y-17000000D01*
X144000000Y-17000000D02*
X144000000Y-39840000D01*
X144000000Y-39840000D02*
X140110000Y-43730000D01*
X119000000Y-16000000D02*
X143000000Y-16000000D01*
X107500000Y-27500000D02*
X119000000Y-16000000D01*
%TO.N,/T Nord*%
X106500000Y-30000000D02*
X107000000Y-29500000D01*
X93000000Y-30000000D02*
X106500000Y-30000000D01*
X143000000Y-38300000D02*
X140110000Y-41190000D01*
X107500000Y-29500000D02*
X119000000Y-18000000D01*
X143000000Y-17000000D02*
X143000000Y-38300000D01*
X119000000Y-18000000D02*
X119000000Y-17000000D01*
X107000000Y-29500000D02*
X107500000Y-29500000D01*
X119000000Y-17000000D02*
X143000000Y-17000000D01*
%TO.N,/LED-Pin*%
X108280000Y-84680000D02*
X109380000Y-85780000D01*
X131500000Y-65500000D02*
X132590000Y-66590000D01*
X111275635Y-85780000D02*
X112000000Y-85055635D01*
X132590000Y-66590000D02*
X140110000Y-66590000D01*
X113500000Y-69500000D02*
X123000000Y-69500000D01*
X113500000Y-78698274D02*
X113500000Y-69500000D01*
X112000000Y-85055635D02*
X112000000Y-80198274D01*
X112000000Y-80198274D02*
X113500000Y-78698274D01*
X123000000Y-69500000D02*
X127000000Y-65500000D01*
X109380000Y-85780000D02*
X111275635Y-85780000D01*
%TO.N,/RLT Nord*%
X140080000Y-31000000D02*
X140110000Y-31030000D01*
X131000000Y-32000000D02*
X139140000Y-32000000D01*
X139140000Y-32000000D02*
X140110000Y-31030000D01*
%TO.N,FM_Nord_Rx*%
X133000000Y-73500000D02*
X134000000Y-73500000D01*
X134000000Y-73500000D02*
X136000000Y-71500000D01*
X142000000Y-58320000D02*
X140110000Y-56430000D01*
X142000000Y-71500000D02*
X142000000Y-58320000D01*
X136000000Y-71500000D02*
X142000000Y-71500000D01*
%TO.N,FF Nord Rx*%
X142500000Y-73500000D02*
X143000000Y-73000000D01*
X140220000Y-54000000D02*
X140110000Y-53890000D01*
X143000000Y-73000000D02*
X143000000Y-54000000D01*
X143000000Y-54000000D02*
X140220000Y-54000000D01*
X138000000Y-73500000D02*
X142500000Y-73500000D01*
%TO.N,/RLT S\u00FCd*%
X139720000Y-36500000D02*
X140110000Y-36110000D01*
X130500000Y-42000000D02*
X136390000Y-36110000D01*
X136390000Y-36110000D02*
X140110000Y-36110000D01*
%TO.N,Net-(R16-Pad1)*%
X138365000Y-78880000D02*
X138365000Y-75865000D01*
X138365000Y-75865000D02*
X138000000Y-75500000D01*
%TO.N,Net-(R13-Pad1)*%
X123125000Y-75625000D02*
X123000000Y-75500000D01*
X123125000Y-78880000D02*
X123125000Y-75625000D01*
%TO.N,Net-(R14-Pad1)*%
X128205000Y-78880000D02*
X128205000Y-75705000D01*
X128205000Y-75705000D02*
X128000000Y-75500000D01*
%TO.N,Net-(R15-Pad1)*%
X133285000Y-75785000D02*
X133000000Y-75500000D01*
X133285000Y-78880000D02*
X133285000Y-75785000D01*
%TO.N,Net-(U4-OUTR)*%
X103200000Y-92300000D02*
X97950000Y-92300000D01*
X97950000Y-92300000D02*
X97800000Y-92150000D01*
%TO.N,Net-(U4-OUTG)*%
X105740000Y-92300000D02*
X103050000Y-89610000D01*
X103050000Y-89610000D02*
X97800000Y-89610000D01*
%TO.N,Net-(U4-DO)*%
X110820000Y-84680000D02*
X109720000Y-83580000D01*
X109720000Y-73620000D02*
X108280000Y-72180000D01*
X109720000Y-83580000D02*
X109720000Y-73620000D01*
%TO.N,Net-(U4-OUTB)*%
X108280000Y-92300000D02*
X103050000Y-87070000D01*
X103050000Y-87070000D02*
X97800000Y-87070000D01*
%TO.N,Net-(U5-OUTG)*%
X104500000Y-78560000D02*
X104500000Y-78000000D01*
X104500000Y-78000000D02*
X102000000Y-78000000D01*
X101290000Y-78500000D02*
X97800000Y-81990000D01*
X105740000Y-79800000D02*
X104500000Y-78560000D01*
X101500000Y-78500000D02*
X101290000Y-78500000D01*
X102000000Y-78000000D02*
X101500000Y-78500000D01*
%TO.N,Net-(U5-OUTR)*%
X99500000Y-82830000D02*
X97800000Y-84530000D01*
X101200000Y-79800000D02*
X99500000Y-81500000D01*
X103200000Y-79800000D02*
X101200000Y-79800000D01*
X99500000Y-81500000D02*
X99500000Y-82830000D01*
%TO.N,Net-(U5-OUTB)*%
X99250000Y-78000000D02*
X97800000Y-79450000D01*
X108280000Y-79800000D02*
X108280000Y-78280000D01*
X108280000Y-78280000D02*
X106500000Y-76500000D01*
X101000000Y-76500000D02*
X99500000Y-78000000D01*
X106500000Y-76500000D02*
X101000000Y-76500000D01*
X99500000Y-78000000D02*
X99250000Y-78000000D01*
%TO.N,Net-(J14-Pin_1)*%
X183960000Y-102500000D02*
X183960000Y-97040000D01*
X188500000Y-92500000D02*
X189000000Y-92500000D01*
X193500000Y-78500000D02*
X193705000Y-78705000D01*
X183960000Y-97040000D02*
X188500000Y-92500000D01*
X193705000Y-78705000D02*
X198525000Y-78705000D01*
X189000000Y-81500000D02*
X192000000Y-78500000D01*
X189000000Y-89500000D02*
X189000000Y-81500000D01*
X189000000Y-92500000D02*
X189000000Y-89500000D01*
X192000000Y-78500000D02*
X193500000Y-78500000D01*
%TO.N,Net-(J16-Pin_1)*%
X178000000Y-92000000D02*
X178000000Y-89500000D01*
X188500000Y-106000000D02*
X188500000Y-95500000D01*
X173540000Y-96460000D02*
X178000000Y-92000000D01*
X195930000Y-94000000D02*
X198525000Y-91405000D01*
X173540000Y-102500000D02*
X173540000Y-96460000D01*
X177040000Y-106000000D02*
X173540000Y-102500000D01*
X190000000Y-94000000D02*
X195930000Y-94000000D01*
X188500000Y-95500000D02*
X190000000Y-94000000D01*
X188500000Y-106000000D02*
X177040000Y-106000000D01*
%TO.N,Net-(J3-Pin_4)*%
X80500000Y-29880000D02*
X90880000Y-29880000D01*
X90880000Y-29880000D02*
X91000000Y-30000000D01*
%TO.N,Net-(J3-Pin_8)*%
X85540000Y-35000000D02*
X91000000Y-35000000D01*
X80500000Y-40040000D02*
X85540000Y-35000000D01*
%TO.N,Net-(J3-Pin_7)*%
X80500000Y-37500000D02*
X85500000Y-32500000D01*
X85500000Y-32500000D02*
X96000000Y-32500000D01*
%TO.N,Net-(J3-Pin_3)*%
X80500000Y-27340000D02*
X95840000Y-27340000D01*
X95840000Y-27340000D02*
X96000000Y-27500000D01*
%TD*%
M02*
