%TF.GenerationSoftware,KiCad,Pcbnew,8.0.2*%
%TF.CreationDate,2024-05-06T20:09:05+02:00*%
%TF.ProjectId,sNs-Block,734e732d-426c-46f6-936b-2e6b69636164,rev?*%
%TF.SameCoordinates,Original*%
%TF.FileFunction,Soldermask,Bot*%
%TF.FilePolarity,Negative*%
%FSLAX46Y46*%
G04 Gerber Fmt 4.6, Leading zero omitted, Abs format (unit mm)*
G04 Created by KiCad (PCBNEW 8.0.2) date 2024-05-06 20:09:05*
%MOMM*%
%LPD*%
G01*
G04 APERTURE LIST*
G04 Aperture macros list*
%AMRoundRect*
0 Rectangle with rounded corners*
0 $1 Rounding radius*
0 $2 $3 $4 $5 $6 $7 $8 $9 X,Y pos of 4 corners*
0 Add a 4 corners polygon primitive as box body*
4,1,4,$2,$3,$4,$5,$6,$7,$8,$9,$2,$3,0*
0 Add four circle primitives for the rounded corners*
1,1,$1+$1,$2,$3*
1,1,$1+$1,$4,$5*
1,1,$1+$1,$6,$7*
1,1,$1+$1,$8,$9*
0 Add four rect primitives between the rounded corners*
20,1,$1+$1,$2,$3,$4,$5,0*
20,1,$1+$1,$4,$5,$6,$7,0*
20,1,$1+$1,$6,$7,$8,$9,0*
20,1,$1+$1,$8,$9,$2,$3,0*%
G04 Aperture macros list end*
%ADD10R,2.200000X2.200000*%
%ADD11O,2.200000X2.200000*%
%ADD12R,2.000000X2.000000*%
%ADD13C,2.000000*%
%ADD14R,1.700000X1.700000*%
%ADD15O,1.700000X1.700000*%
%ADD16R,1.500000X1.050000*%
%ADD17O,1.500000X1.050000*%
%ADD18C,4.300000*%
%ADD19R,1.600000X1.600000*%
%ADD20O,1.600000X1.600000*%
%ADD21O,1.800000X1.800000*%
%ADD22O,1.500000X1.500000*%
%ADD23C,1.600000*%
%ADD24R,1.800000X1.600000*%
%ADD25C,4.000000*%
%ADD26RoundRect,0.650000X-0.650000X-0.650000X0.650000X-0.650000X0.650000X0.650000X-0.650000X0.650000X0*%
%ADD27C,2.600000*%
%ADD28R,2.000000X1.905000*%
%ADD29O,2.000000X1.905000*%
G04 APERTURE END LIST*
D10*
%TO.C,D3*%
X191310000Y-32000000D03*
D11*
X183690000Y-32000000D03*
%TD*%
D12*
%TO.C,C3*%
X171500000Y-31500000D03*
D13*
X171500000Y-36500000D03*
%TD*%
D14*
%TO.C,J17*%
X173540000Y-102500000D03*
D15*
X171000000Y-102500000D03*
%TD*%
D16*
%TO.C,Q2*%
X165500000Y-88770000D03*
D17*
X165500000Y-87500000D03*
X165500000Y-86230000D03*
%TD*%
D14*
%TO.C,J9*%
X79420000Y-48500000D03*
D15*
X81960000Y-48500000D03*
X84500000Y-48500000D03*
%TD*%
D14*
%TO.C,J8*%
X93500000Y-48000000D03*
D15*
X96040000Y-48000000D03*
%TD*%
D18*
%TO.C,H3*%
X91000000Y-20000000D03*
%TD*%
D19*
%TO.C,U1*%
X114700000Y-35625000D03*
D20*
X114700000Y-38165000D03*
X114700000Y-40705000D03*
X114700000Y-43245000D03*
X114700000Y-45785000D03*
X114700000Y-48325000D03*
X114700000Y-50865000D03*
X114700000Y-53405000D03*
X122320000Y-53405000D03*
X122320000Y-50865000D03*
X122320000Y-48325000D03*
X122320000Y-45785000D03*
X122320000Y-43245000D03*
X122320000Y-40705000D03*
X122320000Y-38165000D03*
X122320000Y-35625000D03*
%TD*%
D16*
%TO.C,Q7*%
X152360000Y-85770000D03*
D17*
X152360000Y-84500000D03*
X152360000Y-83230000D03*
%TD*%
D14*
%TO.C,J13*%
X80000000Y-80580000D03*
D15*
X80000000Y-78040000D03*
X80000000Y-75500000D03*
X80000000Y-72960000D03*
%TD*%
D19*
%TO.C,U5*%
X103200000Y-79800000D03*
D20*
X105740000Y-79800000D03*
X108280000Y-79800000D03*
X110820000Y-79800000D03*
X110820000Y-72180000D03*
X108280000Y-72180000D03*
X105740000Y-72180000D03*
X103200000Y-72180000D03*
%TD*%
D16*
%TO.C,Q1*%
X165500000Y-78770000D03*
D17*
X165500000Y-77500000D03*
X165500000Y-76230000D03*
%TD*%
D19*
%TO.C,U4*%
X103200000Y-92300000D03*
D20*
X105740000Y-92300000D03*
X108280000Y-92300000D03*
X110820000Y-92300000D03*
X110820000Y-84680000D03*
X108280000Y-84680000D03*
X105740000Y-84680000D03*
X103200000Y-84680000D03*
%TD*%
D16*
%TO.C,Q5*%
X118000000Y-87270000D03*
D17*
X118000000Y-86000000D03*
X118000000Y-84730000D03*
%TD*%
D14*
%TO.C,J14*%
X183960000Y-102500000D03*
D15*
X181420000Y-102500000D03*
%TD*%
D14*
%TO.C,J6*%
X198525000Y-46125000D03*
D15*
X198525000Y-48665000D03*
X198525000Y-51205000D03*
X198525000Y-53745000D03*
X198525000Y-56285000D03*
X198525000Y-58825000D03*
X198525000Y-61365000D03*
X198525000Y-63905000D03*
%TD*%
D14*
%TO.C,J7*%
X198525000Y-73625000D03*
D15*
X198525000Y-76165000D03*
X198525000Y-78705000D03*
X198525000Y-81245000D03*
X198525000Y-83785000D03*
X198525000Y-86325000D03*
X198525000Y-88865000D03*
X198525000Y-91405000D03*
%TD*%
D21*
%TO.C,U2*%
X146275000Y-21000000D03*
D22*
X146575000Y-24030000D03*
X151425000Y-24030000D03*
D21*
X151725000Y-21000000D03*
D15*
X140110000Y-20870000D03*
X140110000Y-23410000D03*
D14*
X140110000Y-25950000D03*
D15*
X140110000Y-28490000D03*
X140110000Y-31030000D03*
X140110000Y-33570000D03*
X140110000Y-36110000D03*
D14*
X140110000Y-38650000D03*
D15*
X140110000Y-41190000D03*
X140110000Y-43730000D03*
X140110000Y-46270000D03*
X140110000Y-48810000D03*
D14*
X140110000Y-51350000D03*
D15*
X140110000Y-53890000D03*
X140110000Y-56430000D03*
X140110000Y-58970000D03*
X140110000Y-61510000D03*
D14*
X140110000Y-64050000D03*
D15*
X140110000Y-66590000D03*
X140110000Y-69130000D03*
X157890000Y-69130000D03*
X157890000Y-66590000D03*
D14*
X157890000Y-64050000D03*
D15*
X157890000Y-61510000D03*
X157890000Y-58970000D03*
X157890000Y-56430000D03*
X157890000Y-53890000D03*
D14*
X157890000Y-51350000D03*
D15*
X157890000Y-48810000D03*
X157890000Y-46270000D03*
X157890000Y-43730000D03*
X157890000Y-41190000D03*
D14*
X157890000Y-38650000D03*
D15*
X157890000Y-36110000D03*
X157890000Y-33570000D03*
X157890000Y-31030000D03*
X157890000Y-28490000D03*
D14*
X157890000Y-25950000D03*
D15*
X157890000Y-23410000D03*
X157890000Y-20870000D03*
X146460000Y-68900000D03*
D14*
X149000000Y-68900000D03*
D15*
X151540000Y-68900000D03*
%TD*%
D19*
%TO.C,U3*%
X123125000Y-86500000D03*
D20*
X125665000Y-86500000D03*
X128205000Y-86500000D03*
X130745000Y-86500000D03*
X133285000Y-86500000D03*
X135825000Y-86500000D03*
X138365000Y-86500000D03*
X140905000Y-86500000D03*
X140905000Y-78880000D03*
X138365000Y-78880000D03*
X135825000Y-78880000D03*
X133285000Y-78880000D03*
X130745000Y-78880000D03*
X128205000Y-78880000D03*
X125665000Y-78880000D03*
X123125000Y-78880000D03*
%TD*%
D18*
%TO.C,H2*%
X196000000Y-22000000D03*
%TD*%
D14*
%TO.C,J12*%
X80000000Y-93540000D03*
D15*
X80000000Y-91000000D03*
X80000000Y-88460000D03*
X80000000Y-85920000D03*
%TD*%
D23*
%TO.C,K2*%
X180802500Y-66737500D03*
X185882500Y-66737500D03*
X190962500Y-66737500D03*
X180802500Y-59117500D03*
X185882500Y-59117500D03*
X190962500Y-59117500D03*
D24*
X173182500Y-66737500D03*
D23*
X173182500Y-59117500D03*
%TD*%
D25*
%TO.C,J1*%
X97345000Y-100460000D03*
X122345000Y-100460000D03*
D19*
X115385000Y-100160000D03*
D23*
X112615000Y-100160000D03*
X109845000Y-100160000D03*
X107075000Y-100160000D03*
X104305000Y-100160000D03*
X114000000Y-103000000D03*
X111230000Y-103000000D03*
X108460000Y-103000000D03*
X105690000Y-103000000D03*
%TD*%
D16*
%TO.C,Q8*%
X117860000Y-78270000D03*
D17*
X117860000Y-77000000D03*
X117860000Y-75730000D03*
%TD*%
D16*
%TO.C,Q6*%
X152360000Y-93270000D03*
D17*
X152360000Y-92000000D03*
X152360000Y-90730000D03*
%TD*%
D14*
%TO.C,J16*%
X178000000Y-89500000D03*
D15*
X175460000Y-89500000D03*
%TD*%
D26*
%TO.C,JP5*%
X168960000Y-19000000D03*
D27*
X174040000Y-19000000D03*
%TD*%
D18*
%TO.C,H4*%
X84500000Y-102000000D03*
%TD*%
D14*
%TO.C,J11*%
X79920000Y-60500000D03*
D15*
X82460000Y-60500000D03*
X85000000Y-60500000D03*
%TD*%
D14*
%TO.C,J10*%
X94225000Y-59500000D03*
D15*
X96765000Y-59500000D03*
%TD*%
D23*
%TO.C,K1*%
X180302500Y-50237500D03*
X185382500Y-50237500D03*
X190462500Y-50237500D03*
X180302500Y-42617500D03*
X185382500Y-42617500D03*
X190462500Y-42617500D03*
D24*
X172682500Y-50237500D03*
D23*
X172682500Y-42617500D03*
%TD*%
D14*
%TO.C,J15*%
X189000000Y-89500000D03*
D15*
X186460000Y-89500000D03*
%TD*%
D28*
%TO.C,U7*%
X184500000Y-24500000D03*
D29*
X184500000Y-21960000D03*
X184500000Y-19420000D03*
%TD*%
D19*
%TO.C,U6*%
X97800000Y-92150000D03*
D20*
X97800000Y-89610000D03*
X97800000Y-87070000D03*
X97800000Y-84530000D03*
X97800000Y-81990000D03*
X97800000Y-79450000D03*
X97800000Y-76910000D03*
X97800000Y-74370000D03*
X97800000Y-71830000D03*
X90180000Y-71830000D03*
X90180000Y-74370000D03*
X90180000Y-76910000D03*
X90180000Y-79450000D03*
X90180000Y-81990000D03*
X90180000Y-84530000D03*
X90180000Y-87070000D03*
X90180000Y-89610000D03*
X90180000Y-92150000D03*
%TD*%
D14*
%TO.C,J18*%
X198475000Y-37250000D03*
D15*
X198475000Y-34710000D03*
%TD*%
D18*
%TO.C,H1*%
X196500000Y-103000000D03*
%TD*%
D14*
%TO.C,J3*%
X80500000Y-22260000D03*
D15*
X80500000Y-24800000D03*
X80500000Y-27340000D03*
X80500000Y-29880000D03*
X80500000Y-32420000D03*
X80500000Y-34960000D03*
X80500000Y-37500000D03*
X80500000Y-40040000D03*
%TD*%
D25*
%TO.C,J2*%
X134490000Y-100794669D03*
X159490000Y-100794669D03*
D19*
X141450000Y-100494669D03*
D23*
X144220000Y-100494669D03*
X146990000Y-100494669D03*
X149760000Y-100494669D03*
X152530000Y-100494669D03*
X142835000Y-103334669D03*
X145605000Y-103334669D03*
X148375000Y-103334669D03*
X151145000Y-103334669D03*
%TD*%
M02*
