M48
; DRILL file {KiCad 8.0.2} date 2024-05-06T20:09:09+0200
; FORMAT={-:-/ absolute / inch / decimal}
; #@! TF.CreationDate,2024-05-06T20:09:09+02:00
; #@! TF.GenerationSoftware,Kicad,Pcbnew,8.0.2
; #@! TF.FileFunction,Plated,1,2,PTH
FMAT,2
INCH
; #@! TA.AperFunction,Plated,PTH,ViaDrill
T1C0.0118
; #@! TA.AperFunction,Plated,PTH,ComponentDrill
T2C0.0295
; #@! TA.AperFunction,Plated,PTH,ComponentDrill
T3C0.0315
; #@! TA.AperFunction,Plated,PTH,ComponentDrill
T4C0.0394
; #@! TA.AperFunction,Plated,PTH,ComponentDrill
T5C0.0402
; #@! TA.AperFunction,Plated,PTH,ComponentDrill
T6C0.0433
; #@! TA.AperFunction,Plated,PTH,ComponentDrill
T7C0.0512
; #@! TA.AperFunction,Plated,PTH,ComponentDrill
T8C0.1260
%
G90
G05
T1
X3.9173Y-1.8898
X3.9173Y-2.3819
X3.9567Y-1.7913
X3.9567Y-2.2835
X3.9567Y-2.5
X4.3701Y-2.3031
X5.0Y-2.5787
X5.1575Y-1.9094
X5.1772Y-2.5787
X5.8071Y-0.6693
X6.6535Y-3.3268
X6.9882Y-3.1693
X7.6181Y-2.8937
T2
X4.6402Y-2.9815
X4.6402Y-3.0315
X4.6402Y-3.0815
X4.6457Y-3.3358
X4.6457Y-3.3858
X4.6457Y-3.4358
X5.9984Y-3.2768
X5.9984Y-3.3268
X5.9984Y-3.3768
X5.9984Y-3.572
X5.9984Y-3.622
X5.9984Y-3.672
X6.5157Y-3.0012
X6.5157Y-3.0512
X6.5157Y-3.1012
X6.5157Y-3.3949
X6.5157Y-3.4449
X6.5157Y-3.4949
T3
X3.5504Y-2.828
X3.5504Y-2.928
X3.5504Y-3.028
X3.5504Y-3.128
X3.5504Y-3.228
X3.5504Y-3.328
X3.5504Y-3.428
X3.5504Y-3.528
X3.5504Y-3.628
X3.8504Y-2.828
X3.8504Y-2.928
X3.8504Y-3.028
X3.8504Y-3.128
X3.8504Y-3.228
X3.8504Y-3.328
X3.8504Y-3.428
X3.8504Y-3.528
X3.8504Y-3.628
X4.063Y-2.8417
X4.063Y-3.1417
X4.063Y-3.3339
X4.063Y-3.6339
X4.163Y-2.8417
X4.163Y-3.1417
X4.163Y-3.3339
X4.163Y-3.6339
X4.263Y-2.8417
X4.263Y-3.1417
X4.263Y-3.3339
X4.263Y-3.6339
X4.363Y-2.8417
X4.363Y-3.1417
X4.363Y-3.3339
X4.363Y-3.6339
X4.5157Y-1.4026
X4.5157Y-1.5026
X4.5157Y-1.6026
X4.5157Y-1.7026
X4.5157Y-1.8026
X4.5157Y-1.9026
X4.5157Y-2.0026
X4.5157Y-2.1026
X4.8157Y-1.4026
X4.8157Y-1.5026
X4.8157Y-1.6026
X4.8157Y-1.7026
X4.8157Y-1.8026
X4.8157Y-1.9026
X4.8157Y-2.0026
X4.8157Y-2.1026
X4.8474Y-3.1055
X4.8474Y-3.4055
X4.9474Y-3.1055
X4.9474Y-3.4055
X5.0474Y-3.1055
X5.0474Y-3.4055
X5.1474Y-3.1055
X5.1474Y-3.4055
X5.2474Y-3.1055
X5.2474Y-3.4055
X5.3474Y-3.1055
X5.3474Y-3.4055
X5.4474Y-3.1055
X5.4474Y-3.4055
X5.5474Y-3.1055
X5.5474Y-3.4055
X6.7985Y-1.6779
X6.7985Y-1.9779
X6.8182Y-2.3275
X6.8182Y-2.6275
X7.0985Y-1.6779
X7.0985Y-1.9779
X7.1182Y-2.3275
X7.1182Y-2.6275
X7.2985Y-1.6779
X7.2985Y-1.9779
X7.3182Y-2.3275
X7.3182Y-2.6275
X7.4985Y-1.6779
X7.4985Y-1.9779
X7.5182Y-2.3275
X7.5182Y-2.6275
T4
X3.1268Y-1.9094
X3.1465Y-2.3819
X3.1496Y-2.8724
X3.1496Y-2.9724
X3.1496Y-3.0724
X3.1496Y-3.1724
X3.1496Y-3.3827
X3.1496Y-3.4827
X3.1496Y-3.5827
X3.1496Y-3.6827
X3.1693Y-0.8764
X3.1693Y-0.9764
X3.1693Y-1.0764
X3.1693Y-1.1764
X3.1693Y-1.2764
X3.1693Y-1.3764
X3.1693Y-1.4764
X3.1693Y-1.5764
X3.2268Y-1.9094
X3.2465Y-2.3819
X3.3268Y-1.9094
X3.3465Y-2.3819
X3.6811Y-1.8898
X3.7096Y-2.3425
X3.7811Y-1.8898
X3.8096Y-2.3425
X4.1065Y-3.9433
X4.161Y-4.0551
X4.2156Y-3.9433
X4.2701Y-4.0551
X4.3246Y-3.9433
X4.3791Y-4.0551
X4.4337Y-3.9433
X4.4882Y-4.0551
X4.5427Y-3.9433
X5.5689Y-3.9565
X5.6234Y-4.0683
X5.678Y-3.9565
X5.7325Y-4.0683
X5.787Y-3.9565
X5.8415Y-4.0683
X5.8961Y-3.9565
X5.9506Y-4.0683
X6.0051Y-3.9565
X6.7323Y-4.0354
X6.752Y-1.2402
X6.752Y-1.437
X6.8323Y-4.0354
X6.9079Y-3.5236
X7.0079Y-3.5236
X7.1425Y-4.0354
X7.2425Y-4.0354
X7.3409Y-3.5236
X7.4409Y-3.5236
X7.814Y-1.3665
X7.814Y-1.4665
X7.8159Y-1.8159
X7.8159Y-1.9159
X7.8159Y-2.0159
X7.8159Y-2.1159
X7.8159Y-2.2159
X7.8159Y-2.3159
X7.8159Y-2.4159
X7.8159Y-2.5159
X7.8159Y-2.8986
X7.8159Y-2.9986
X7.8159Y-3.0986
X7.8159Y-3.1986
X7.8159Y-3.2986
X7.8159Y-3.3986
X7.8159Y-3.4986
X7.8159Y-3.5986
T5
X5.5161Y-0.8217
X5.5161Y-0.9217
X5.5161Y-1.0217
X5.5161Y-1.1217
X5.5161Y-1.2217
X5.5161Y-1.3217
X5.5161Y-1.4217
X5.5161Y-1.5217
X5.5161Y-1.6217
X5.5161Y-1.7217
X5.5161Y-1.8217
X5.5161Y-1.9217
X5.5161Y-2.0217
X5.5161Y-2.1217
X5.5161Y-2.2217
X5.5161Y-2.3217
X5.5161Y-2.4217
X5.5161Y-2.5217
X5.5161Y-2.6217
X5.5161Y-2.7217
X5.7661Y-2.7126
X5.8661Y-2.7126
X5.9661Y-2.7126
X6.2161Y-0.8217
X6.2161Y-0.9217
X6.2161Y-1.0217
X6.2161Y-1.1217
X6.2161Y-1.2217
X6.2161Y-1.3217
X6.2161Y-1.4217
X6.2161Y-1.5217
X6.2161Y-1.6217
X6.2161Y-1.7217
X6.2161Y-1.8217
X6.2161Y-1.9217
X6.2161Y-2.0217
X6.2161Y-2.1217
X6.2161Y-2.2217
X6.2161Y-2.3217
X6.2161Y-2.4217
X6.2161Y-2.5217
X6.2161Y-2.6217
X6.2161Y-2.7217
T6
X7.2319Y-1.2598
X7.2638Y-0.7646
X7.2638Y-0.8646
X7.2638Y-0.9646
X7.5319Y-1.2598
T7
X6.652Y-0.748
X6.852Y-0.748
T8
X3.8325Y-3.9551
X4.8167Y-3.9551
X5.2949Y-3.9683
X6.2791Y-3.9683
M30
